<?xml version="1.0" encoding="utf-8"?>
<!-- Generator: Adobe Illustrator 19.2.0, SVG Export Plug-In . SVG Version: 6.00 Build 0)  -->
<svg version="1.1" id="Layer_1" xmlns="http://www.w3.org/2000/svg" xmlns:xlink="http://www.w3.org/1999/xlink" x="0px" y="0px"
	 viewBox="0 0 300 400" style="enable-background:new 0 0 300 400;" xml:space="preserve">
<style type="text/css">
	.st0{fill:#839097;}
	.st1{fill:#C0CBD2;}
</style>
<g>
	<g>
		<path d="M73.2,43.4h12l9.9,54.2h0.2l8.1-54.2h13.7l-15,85H89.9L79.3,72.3h-0.2l-9.9,56.2H57l-16.1-85h13.7l9,54.2h0.2L73.2,43.4z"
			/>
		<path d="M121.7,43.4h21.7c7.9,0,13.6,1.9,17.2,5.8c3.6,3.8,5.4,9.4,5.4,16.7c0,1.8-0.2,3.6-0.6,5.5c-0.4,1.8-1,3.6-1.8,5.1
			c-0.8,1.6-1.9,3-3.2,4.2c-1.3,1.3-2.8,2.2-4.5,2.9c3.8,1.6,6.7,4,8.7,7.2c2,3.1,3.1,7.5,3.1,13c0,3.5-0.4,6.8-1.2,9.8
			c-0.8,3-2.1,5.6-3.9,7.8c-1.8,2.2-4.2,3.9-7.1,5.2c-2.9,1.3-6.4,1.9-10.6,1.9h-23.1V43.4z M136.3,78.3h5.3c2.7,0,5.1-0.9,6.9-2.8
			c1.9-1.8,2.8-4.5,2.8-8.1c0-8-3.2-12-9.5-12h-5.5V78.3z M136.3,116.4h6.1c3.9,0,6.7-1.1,8.2-3.3c1.6-2.2,2.4-5.5,2.4-9.8
			c0-4.4-0.9-7.7-2.7-9.8c-1.8-2.2-4.9-3.2-9.3-3.2h-4.7V116.4z"/>
		<path d="M173.6,128.4v-85h39.1v12.7h-24.5V78H207v12.7h-18.8v25h26.1v12.7H173.6z"/>
		<path d="M222.6,56.1V43.4h38.6v13.9l-26.9,58.4h26.9v12.7h-41.9v-13.9l27.2-58.4H222.6z"/>
	</g>
	<g>
		<path class="st0" d="M64.9,243.4v6.7c0,8.3,3.2,12.5,9.6,12.5c7,0,10.5-4.2,10.5-12.5v-30.7c-1.5,1.5-2.8,2.7-4.1,3.8
			c-1.3,1.1-2.6,2-4,2.7c-1.4,0.7-2.9,1.3-4.5,1.6c-1.6,0.4-3.6,0.5-5.9,0.5c-3.3,0-6.3-0.5-9.3-1.5c-2.9-1-5.4-2.5-7.6-4.7
			c-2.2-2.2-3.9-5-5.2-8.3c-1.3-3.4-1.9-7.5-1.9-12.3v-15.6c0-13.9,2.5-24,7.4-30.4c5-6.3,13.1-9.5,24.5-9.5
			c11.4,0,19.5,2.9,24.5,8.6c5,5.7,7.4,14.8,7.4,27.3v62.8c0,12.5-2.5,21.6-7.4,27.3c-5,5.7-13.1,8.6-24.5,8.6
			c-4.5,0.1-8.5-0.5-12.1-2c-3.6-1.5-6.6-3.5-9.2-6.1c-2.5-2.6-4.5-5.7-5.9-9.3c-1.4-3.6-2.1-7.5-2.1-11.7v-8H64.9z M85,176.1
			c0-8.3-3.5-12.5-10.5-12.5c-7,0-10.5,4.2-10.5,12.5v21.8c0,4.2,0.9,7.4,2.6,9.4c1.8,2.1,4,3.1,6.8,3.1c2.1,0,4.2-0.7,6.3-2.2
			c2.2-1.5,3.9-2.7,5.3-3.8V176.1z"/>
		<path class="st0" d="M132.4,174.8h-17.8v-12.2c5.1-2.5,9.9-5.2,14.3-8c4.5-2.8,8.6-5.7,12.3-8.9h11.4v132.8h-20.3V174.8z"/>
		<path class="st0" d="M164.8,278.6v-21.4h21.4v21.4H164.8z"/>
		<path class="st0" d="M217.8,240.6v10.5c0,3.5,0.9,6.3,2.7,8.3c1.8,2.1,4.2,3.1,7.3,3.1c3.5,0,6.2-1.2,8.2-3.5
			c1.9-2.4,2.9-6.5,2.9-12.4v-29.7c0-4.2-0.9-7.3-2.8-9.2c-1.9-1.9-4.1-2.8-6.6-2.8c-3.5,0-6.2,1-8,2.9c-1.8,1.9-3.2,4.3-4.2,7.1
			h-17.4c0.1-5.1,0.3-10,0.5-14.7c0.2-4.7,0.4-9.7,0.5-14.9c0.1-5.2,0.2-10.9,0.4-17c0.1-6.1,0.2-13,0.2-20.8h54.6l-0.7,18.5H220
			l-1.3,28.3l0.4,0.4c2.8-3.4,5.5-5.5,8.1-6.3c2.6-0.8,5.7-1.3,9.2-1.3c8.7,0,14.9,3,18.5,9c3.6,6,5.4,14.5,5.4,25.5v18.1
			c0,13.8-2.4,24-7.1,30.7c-4.7,6.7-12.5,10-23.4,10c-4.6,0-8.9-0.5-12.8-1.5c-3.9-1-7.3-2.7-10.2-5.1c-2.9-2.4-5.2-5.4-6.8-9.3
			c-1.6-3.8-2.4-8.4-2.4-13.9v-10H217.8z"/>
	</g>
	<g>
		<path class="st1" d="M59.8,315.4v-4.3c0-2.3-0.5-4-1.4-5.1c-0.9-1-2-1.6-3.2-1.6c-1.9,0-3.3,0.5-4,1.5c-0.7,1-1.1,2.5-1.1,4.6v28
			c0,2.1,0.4,3.6,1.1,4.6c0.7,1,2,1.5,4,1.5c1.7,0,2.9-0.5,3.6-1.5c0.7-1,1-2.3,1-4.1v-6.6h9.5v6.3c0,1.9-0.3,3.8-0.9,5.5
			c-0.6,1.7-1.5,3.2-2.6,4.5c-1.1,1.3-2.6,2.3-4.4,3c-1.8,0.7-3.8,1.1-6.2,1.1c-2.5,0-4.6-0.4-6.5-1.1c-1.8-0.7-3.3-1.7-4.5-3
			c-1.2-1.3-2.1-2.8-2.7-4.5c-0.6-1.7-0.9-3.6-0.9-5.5v-28.4c0-1.9,0.3-3.8,0.9-5.5c0.6-1.7,1.5-3.2,2.7-4.5c1.2-1.3,2.7-2.3,4.5-3
			c1.8-0.7,4-1.1,6.5-1.1c2.3,0,4.4,0.4,6.2,1.2c1.8,0.8,3.2,1.9,4.4,3.3c1.1,1.4,2,3,2.6,4.8c0.6,1.8,0.9,3.8,0.9,5.8v4H59.8z"/>
		<path class="st1" d="M75.9,352.1V297h9.5v22.5h10.1V297h9.5v55.2h-9.5v-24.4H85.3v24.4H75.9z"/>
		<path class="st1" d="M112.3,352.1V297h9.5v55.2H112.3z"/>
		<path class="st1" d="M148.3,315.4v-4.3c0-2.3-0.5-4-1.4-5.1c-0.9-1-2-1.6-3.2-1.6c-1.9,0-3.3,0.5-4,1.5c-0.7,1-1.1,2.5-1.1,4.6v28
			c0,2.1,0.4,3.6,1.1,4.6c0.7,1,2,1.5,4,1.5c1.7,0,2.9-0.5,3.6-1.5c0.7-1,1-2.3,1-4.1v-6.6h9.5v6.3c0,1.9-0.3,3.8-0.9,5.5
			c-0.6,1.7-1.5,3.2-2.6,4.5c-1.1,1.3-2.6,2.3-4.4,3c-1.8,0.7-3.8,1.1-6.2,1.1c-2.5,0-4.6-0.4-6.5-1.1c-1.8-0.7-3.3-1.7-4.5-3
			c-1.2-1.3-2.1-2.8-2.7-4.5c-0.6-1.7-0.9-3.6-0.9-5.5v-28.4c0-1.9,0.3-3.8,0.9-5.5c0.6-1.7,1.5-3.2,2.7-4.5c1.2-1.3,2.7-2.3,4.5-3
			c1.8-0.7,4-1.1,6.5-1.1c2.3,0,4.4,0.4,6.2,1.2c1.8,0.8,3.2,1.9,4.4,3.3c1.1,1.4,2,3,2.6,4.8c0.6,1.8,0.9,3.8,0.9,5.8v4H148.3z"/>
		<path class="st1" d="M169.8,352.1h-9.2l10.2-55.2h11.8l10.2,55.2h-9.2l-1.7-12.2h-10.4L169.8,352.1z M172.9,331.7h7.6l-3.7-23.7
			h-0.2L172.9,331.7z"/>
		<path class="st1" d="M208.2,324.2h15.5v28h-4.6l-1.8-4.1c-1.4,1.7-2.8,2.9-4.2,3.7c-1.4,0.8-3.1,1.2-5.4,1.2
			c-3.8,0-6.8-1.2-9.2-3.7c-2.3-2.5-3.5-6-3.5-10.4v-28.4c0-1.9,0.3-3.8,0.9-5.5c0.6-1.7,1.5-3.2,2.6-4.5c1.1-1.3,2.6-2.3,4.3-3
			c1.7-0.7,3.8-1.1,6.1-1.1c2.3,0,4.4,0.4,6.2,1.2c1.8,0.8,3.3,1.9,4.5,3.3c1.2,1.4,2.1,3,2.7,4.8c0.6,1.8,0.9,3.8,0.9,5.8v3.5h-9
			c0-2-0.1-3.7-0.3-5.1c-0.2-1.3-0.5-2.4-1-3.2c-0.5-0.8-1-1.3-1.7-1.6c-0.7-0.3-1.5-0.5-2.4-0.5c-1.2,0-2.2,0.4-3,1.3
			c-0.8,0.8-1.2,2.4-1.2,4.8v28.3c0,1.8,0.3,3.2,1,4.2c0.7,1,1.8,1.6,3.4,1.6c1.9,0,3.3-0.6,4-1.8c0.8-1.2,1.1-3.1,1.1-5.9v-5.3h-6
			V324.2z"/>
		<path class="st1" d="M230.3,310.4c0-1.9,0.3-3.8,0.9-5.5c0.6-1.7,1.5-3.2,2.7-4.5c1.2-1.3,2.7-2.3,4.5-3c1.8-0.7,4-1.1,6.5-1.1
			c2.5,0,4.6,0.4,6.5,1.1c1.8,0.7,3.3,1.7,4.5,3c1.2,1.3,2.1,2.8,2.7,4.5c0.6,1.7,0.9,3.6,0.9,5.5v28.4c0,1.9-0.3,3.8-0.9,5.5
			c-0.6,1.7-1.5,3.2-2.7,4.5c-1.2,1.3-2.7,2.3-4.5,3c-1.8,0.7-4,1.1-6.5,1.1c-2.5,0-4.6-0.4-6.5-1.1c-1.8-0.7-3.3-1.7-4.5-3
			c-1.2-1.3-2.1-2.8-2.7-4.5c-0.6-1.7-0.9-3.6-0.9-5.5V310.4z M239.8,338.5c0,2.1,0.4,3.6,1.1,4.6c0.7,1,2,1.5,4,1.5
			c1.9,0,3.3-0.5,4-1.5c0.7-1,1.1-2.5,1.1-4.6v-28c0-2.1-0.4-3.6-1.1-4.6c-0.7-1-2-1.5-4-1.5c-1.9,0-3.3,0.5-4,1.5
			c-0.7,1-1.1,2.5-1.1,4.6V338.5z"/>
	</g>
</g>
</svg>
