<?xml version="1.0" encoding="utf-8"?>
<!-- Generator: Adobe Illustrator 19.2.0, SVG Export Plug-In . SVG Version: 6.00 Build 0)  -->
<svg version="1.1" id="Layer_1" xmlns="http://www.w3.org/2000/svg" xmlns:xlink="http://www.w3.org/1999/xlink" x="0px" y="0px"
	 viewBox="0 0 1085.8 248.1" style="enable-background:new 0 0 1085.8 248.1;" xml:space="preserve">
<style type="text/css">
	.st0{fill:#FFFFFF;}
	.st1{fill:#839097;}
	.st2{fill:#C0CBD2;}
</style>
<g>
	<path class="st0" d="M104.7,72.8h16.8l13.9,75.9h0.3l11.4-75.9h19.1l-21,119.1h-17.2l-14.8-78.7h-0.3l-13.9,78.7H81.9L59.3,72.8
		h19.1L91,148.6h0.3L104.7,72.8z"/>
	<path class="st0" d="M169.3,72.8h30.4c11,0,19,2.7,24.1,8.1c5.1,5.4,7.6,13.2,7.6,23.4c0,2.5-0.3,5.1-0.8,7.7
		c-0.6,2.6-1.4,5-2.6,7.2c-1.2,2.2-2.6,4.2-4.5,5.9c-1.8,1.8-3.9,3.1-6.4,4.1c5.3,2.3,9.3,5.7,12.2,10.1c2.9,4.4,4.3,10.5,4.3,18.1
		c0,4.9-0.6,9.5-1.7,13.7c-1.2,4.2-3,7.8-5.5,10.9c-2.5,3.1-5.8,5.5-9.9,7.3c-4.1,1.8-9,2.6-14.8,2.6h-32.3V72.8z M189.8,121.6h7.4
		c3.8,0,7.1-1.3,9.7-3.9c2.6-2.6,4-6.4,4-11.3c0-11.2-4.5-16.8-13.4-16.8h-7.8V121.6z M189.8,175h8.6c5.5,0,9.3-1.5,11.5-4.6
		c2.2-3.1,3.3-7.6,3.3-13.7c0-6.2-1.3-10.8-3.8-13.8c-2.5-3-6.9-4.5-13-4.5h-6.6V175z"/>
	<path class="st0" d="M241.9,191.9V72.8h54.8v17.8h-34.3v30.7h26.4v17.8h-26.4v35H299v17.8H241.9z"/>
	<path class="st0" d="M307.3,90.6V72.8h54.1v19.5l-37.6,81.8h37.6v17.8h-58.7v-19.5l38.1-81.8H307.3z"/>
	<path class="st1" d="M386.6,159.9v6.1c0,7.6,2.9,11.4,8.7,11.4c6.4,0,9.6-3.8,9.6-11.4v-27.9c-1.3,1.3-2.6,2.5-3.7,3.5
		c-1.2,1-2.4,1.8-3.6,2.5c-1.3,0.7-2.6,1.2-4.1,1.5c-1.5,0.3-3.3,0.5-5.4,0.5c-3,0-5.8-0.4-8.4-1.3c-2.6-0.9-5-2.3-6.9-4.3
		c-2-2-3.5-4.5-4.7-7.6c-1.2-3.1-1.7-6.8-1.7-11.2v-14.2c0-12.6,2.3-21.9,6.8-27.6c4.5-5.8,11.9-8.7,22.3-8.7
		c10.3,0,17.8,2.6,22.3,7.8c4.5,5.2,6.8,13.5,6.8,24.8v57.1c0,11.3-2.3,19.6-6.8,24.8c-4.5,5.2-11.9,7.8-22.3,7.8
		c-4.1,0.1-7.7-0.5-11-1.8c-3.2-1.3-6-3.2-8.3-5.5c-2.3-2.4-4.1-5.2-5.4-8.4c-1.3-3.2-1.9-6.8-1.9-10.6v-7.3H386.6z M404.9,98.7
		c0-7.6-3.2-11.4-9.6-11.4c-6.4,0-9.6,3.8-9.6,11.4v19.8c0,3.9,0.8,6.7,2.4,8.6c1.6,1.9,3.7,2.8,6.2,2.8c1.9,0,3.8-0.7,5.8-2
		c2-1.3,3.6-2.5,4.8-3.5V98.7z"/>
	<path class="st1" d="M451.3,97.5h-16.2V86.4c4.6-2.3,9-4.7,13-7.3c4.1-2.5,7.8-5.2,11.2-8.1h10.4v120.8h-18.5V97.5z"/>
	<path class="st1" d="M477.5,191.9v-19.5H497v19.5H477.5z"/>
	<path class="st1" d="M522.4,157.4v9.6c0,3.2,0.8,5.7,2.5,7.6c1.6,1.9,3.8,2.8,6.6,2.8c3.2,0,5.7-1.1,7.4-3.2
		c1.8-2.1,2.6-5.9,2.6-11.3v-27.1c0-3.8-0.9-6.6-2.6-8.3c-1.7-1.7-3.7-2.6-6-2.6c-3.2,0-5.6,0.9-7.3,2.6c-1.6,1.8-2.9,3.9-3.8,6.4
		H506c0.1-4.6,0.3-9.1,0.5-13.4c0.2-4.3,0.4-8.8,0.5-13.5c0.1-4.7,0.2-9.9,0.3-15.4c0.1-5.6,0.2-11.9,0.2-18.9h49.7l-0.7,16.8h-32.2
		l-1.2,25.7l0.3,0.3c2.5-3.1,5-5,7.3-5.8c2.4-0.8,5.1-1.2,8.3-1.2c7.9,0,13.5,2.7,16.8,8.2c3.3,5.4,4.9,13.2,4.9,23.2v16.5
		c0,12.5-2.1,21.8-6.4,27.9c-4.3,6.1-11.4,9.1-21.3,9.1c-4.2,0-8.1-0.5-11.6-1.4c-3.6-0.9-6.7-2.5-9.3-4.6c-2.6-2.1-4.7-4.9-6.2-8.4
		c-1.5-3.5-2.2-7.7-2.2-12.6v-9.1H522.4z"/>
	<path class="st2" d="M610.1,112.5v-9.2c0-5.1-1-8.7-3-11c-2-2.3-4.3-3.4-6.9-3.4c-4.2,0-7,1.1-8.6,3.2c-1.5,2.1-2.3,5.5-2.3,10
		v60.4c0,4.5,0.8,7.8,2.3,10c1.5,2.1,4.4,3.2,8.6,3.2c3.7,0,6.3-1,7.8-3.1c1.4-2.1,2.1-5.1,2.1-8.9v-14.4h20.5V163
		c0,4.2-0.6,8.1-1.9,11.9c-1.3,3.7-3.1,7-5.6,9.7c-2.5,2.8-5.6,4.9-9.5,6.5c-3.9,1.6-8.3,2.4-13.4,2.4c-5.4,0-10-0.8-13.9-2.4
		c-3.9-1.6-7.2-3.8-9.7-6.5c-2.6-2.7-4.5-6-5.8-9.7c-1.3-3.7-1.9-7.7-1.9-11.9v-61.4c0-4.2,0.6-8.1,1.9-11.9c1.3-3.7,3.2-7,5.8-9.7
		c2.6-2.7,5.8-4.9,9.7-6.5c3.9-1.6,8.5-2.4,13.9-2.4c5.1,0,9.5,0.9,13.4,2.6c3.8,1.8,7,4.1,9.5,7.1c2.5,3,4.3,6.4,5.6,10.4
		c1.3,4,1.9,8.1,1.9,12.5v8.7H610.1z"/>
	<path class="st2" d="M641.5,191.9V72.8H662v48.5h21.8V72.8h20.5v119.1h-20.5v-52.8H662v52.8H641.5z"/>
	<path class="st2" d="M716.9,191.9V72.8h20.5v119.1H716.9z"/>
	<path class="st2" d="M791.3,112.5v-9.2c0-5.1-1-8.7-3-11c-2-2.3-4.3-3.4-6.9-3.4c-4.2,0-7,1.1-8.6,3.2c-1.5,2.1-2.3,5.5-2.3,10
		v60.4c0,4.5,0.8,7.8,2.3,10c1.5,2.1,4.4,3.2,8.6,3.2c3.7,0,6.3-1,7.8-3.1c1.4-2.1,2.1-5.1,2.1-8.9v-14.4h20.5V163
		c0,4.2-0.6,8.1-1.9,11.9c-1.3,3.7-3.1,7-5.6,9.7c-2.5,2.8-5.6,4.9-9.5,6.5c-3.9,1.6-8.3,2.4-13.4,2.4c-5.4,0-10-0.8-13.9-2.4
		c-3.9-1.6-7.2-3.8-9.7-6.5c-2.6-2.7-4.5-6-5.8-9.7c-1.3-3.7-1.9-7.7-1.9-11.9v-61.4c0-4.2,0.6-8.1,1.9-11.9c1.3-3.7,3.2-7,5.8-9.7
		c2.6-2.7,5.8-4.9,9.7-6.5c3.9-1.6,8.5-2.4,13.9-2.4c5.1,0,9.5,0.9,13.4,2.6c3.8,1.8,7,4.1,9.5,7.1c2.5,3,4.3,6.4,5.6,10.4
		c1.3,4,1.9,8.1,1.9,12.5v8.7H791.3z"/>
	<path class="st2" d="M834.5,191.9h-19.8l21.9-119.1h25.4L884,191.9h-19.8l-3.6-26.4h-22.4L834.5,191.9z M841.1,147.7h16.5
		l-8.1-51.1h-0.3L841.1,147.7z"/>
	<path class="st2" d="M914.2,131.5h33.5v60.4h-9.9L934,183c-3.1,3.6-6.1,6.3-9,8c-2.9,1.7-6.8,2.6-11.6,2.6
		c-8.1,0-14.7-2.7-19.8-8.1c-5.1-5.4-7.6-12.9-7.6-22.4v-61.4c0-4.2,0.6-8.1,1.9-11.9c1.3-3.7,3.1-7,5.6-9.7
		c2.5-2.7,5.6-4.9,9.3-6.5c3.7-1.6,8.1-2.4,13.2-2.4c5.1,0,9.5,0.9,13.4,2.6c3.8,1.8,7.1,4.1,9.7,7.1c2.6,3,4.5,6.4,5.8,10.4
		c1.3,4,1.9,8.1,1.9,12.5v7.6h-19.5c0-4.4-0.2-8.1-0.7-11c-0.4-2.9-1.2-5.2-2.1-6.9c-1-1.7-2.2-2.9-3.7-3.5c-1.5-0.7-3.2-1-5.2-1
		c-2.5,0-4.7,0.9-6.4,2.7c-1.8,1.8-2.6,5.3-2.6,10.3v61.2c0,3.9,0.7,6.9,2.1,9.2c1.4,2.3,3.9,3.4,7.4,3.4c4.2,0,7.1-1.3,8.7-3.8
		c1.7-2.5,2.5-6.8,2.5-12.7v-11.6h-13V131.5z"/>
	<path class="st2" d="M958.6,101.6c0-4.2,0.6-8.1,1.9-11.9c1.3-3.7,3.2-7,5.8-9.7c2.6-2.7,5.8-4.9,9.7-6.5c3.9-1.6,8.5-2.4,13.9-2.4
		c5.4,0,10,0.8,13.9,2.4c3.9,1.6,7.1,3.8,9.7,6.5c2.6,2.8,4.5,6,5.8,9.7c1.3,3.7,1.9,7.7,1.9,11.9V163c0,4.2-0.6,8.1-1.9,11.9
		c-1.3,3.7-3.2,7-5.8,9.7c-2.6,2.8-5.8,4.9-9.7,6.5c-3.9,1.6-8.6,2.4-13.9,2.4c-5.4,0-10-0.8-13.9-2.4c-3.9-1.6-7.2-3.8-9.7-6.5
		c-2.6-2.7-4.5-6-5.8-9.7c-1.3-3.7-1.9-7.7-1.9-11.9V101.6z M979,162.5c0,4.5,0.8,7.8,2.3,10c1.5,2.1,4.4,3.2,8.6,3.2
		c4.2,0,7-1.1,8.6-3.2c1.5-2.1,2.3-5.5,2.3-10v-60.4c0-4.5-0.8-7.8-2.3-10c-1.5-2.1-4.4-3.2-8.6-3.2c-4.2,0-7,1.1-8.6,3.2
		c-1.5,2.1-2.3,5.5-2.3,10V162.5z"/>
</g>
</svg>
