<svg xmlns="http://www.w3.org/2000/svg" viewBox="0 0 1688 1688"><defs><style>.cls-6{fill:#ffc23b}.cls-3{fill:#ffdf98}.cls-4,.cls-7{fill:#fff}.cls-5,.cls-6,.cls-7{fill-rule:evenodd}</style></defs><g id="Layer_2" data-name="Layer 2"><g id="Layer_3" data-name="Layer 3"><circle cx="844" cy="844" r="844" fill="#ffc23b"/><path d="M229.76 806.49C303 786.69 372.89 755.76 446.39 737c245.63-62.71 502.38 15 755.35 30.85 52.33 3.28 107 3.45 154.4-19.05 38.64-18.36 69.26-50.37 106.79-70.9" fill="#ffe7b1"/><path class="cls-3" d="M241.93 833.16c4.31.29 11.16-1.46 17.56-3.16a50.61 50.61 0 00-8.16.87 75.26 75.26 0 00-9.4 2.29zM259.63 830h.09l-.23.06zM1441.85 650.81c-1.59 1-3.43 2-5.18 3.16 1.71-1.03 3.53-2.05 5.18-3.16z"/><path class="cls-3" d="M554.11 753.21l.67-2.49c7.28-.82 8.41-.25 9.39.26s1.81 1 8.54.13c2.49-1.9 8.12-2.28 13.68-2.45s11.08.14 13.37-.91c-.09.27 6.56 0 6.19 1.08 1-1 2.68-1.18 4.66-1.22a45.07 45.07 0 006.34-.14c1.51-.56-1.13-.52-2.3-1l9.63-1c3.79.47 4.74 1.52.65 1.85 6.29-.12 18.6 0 33.94.2s33.77.94 52.29 2.07l13.85.82 13.62 1c8.92.58 17.52 1.37 25.37 2s15 1.31 21 1.8l14.4 1.14c-3.4-1.78-12-1.6-15-4.07 7.39-.56 10.67 1.39 14 .45 2.47 3.54 15.92 2.39 21.08 6.27l2.29-1.6 3.5 1.53c16.11.83 18 .82 19.35 1.05s2.25.69 16.44 2.61c16.51 1.77 24.66.21 33.73 2.36-1.36-.2-4.86-1.8-.52-1.71.52 1.71 11.54.35 13.42 2.24 4.2.33 17.79 2.4 13.47-.43 2.17 1.41 14.24 3.49 6.89 3.47 4.08.62 8 1.47 11 1.39l-5.18-1.32c13.89 1.56 21.2 4.29 30.5 3.54l-5-1.57c8.31 1 15.27 1.78 18.23 4.39l-8.61-.5c13.75 1.83 22.1 2.82 33.74 3.22l-4.09-.62c7.45-.08 30.42 2 53.33 3.84 11.46.89 22.89 1.76 32.34 2.27s16.9.73 20.37.43l-6.07-2.41c3.95 0 7.9-.06 11.86-.13-1.38-.17-6.26 4.89-7.36 4.2l14 1.39 9.92 1 11.49 1 12.72 1.12 13.67 1c4.68.34 9.45.77 14.29 1.06l14.61.94c19.5 1.3 39.47 2 56.16 1.93 4.18 0 8.17-.13 11.86-.18l10.26-.4c6.25-.38 11.14-.59 14.28-.84 10.18-.14 2.12 2.49 2 2.77 6.14-.94 7.43-1.63 8.48-2.13s1.89-.88 7.15-1.56c1.46-.06 1.37.26.71.72a12.4 12.4 0 01-2.68 1.16c2.3-.4 4.55-.72 6.25-1s2.87-.54 3-1c-5.9.44-3.8-2.08-6.45-3l6.71-1.11 3.36-.58 3.36-.69-.31 1.43c1.5-.31 3.22-1.63 6.18-3.14a55.26 55.26 0 015.52-2.52c1.12-.43 2.36-.85 3.73-1.26s2.86-.83 4.5-1.27a178.21 178.21 0 0033.14-13 302.81 302.81 0 0029.86-17.84c.16.85-3.34 3.87-7.11 6.81l4.42-2.87a28.6 28.6 0 014.38-2.48c-2.61.92-.82-.58 1.14-2.08s4-3 2.15-2.07c11.2-11.83 28.4-21.49 37.52-30.74-.2-.75-.75-4.67-1.42-10.23s-1.39-12.69-2-19.94-1-14.56-1.18-20.23-.44-9.81-.89-10.56a89.22 89.22 0 019.65-5.1c-.73-.06-3.18 1-6 2.42a54.13 54.13 0 00-7.72 4.78l.28 2c-2.32 1.6-3.51 2.48-4.35 2.92a3 3 0 01-1.5.51 3.62 3.62 0 00-1.52.41 28 28 0 00-4.27 2.64c-.64-.46.91-2.16 3.71-4.32 1.38-1.08 3-2.29 4.8-3.53s3.76-2.48 5.64-3.68c-1.73 1-3.49 2-5.19 2.92s-3.24 1.86-4.68 2.74a35.23 35.23 0 00-3.71 2.56 8.71 8.71 0 00-2.14 2.44c-6.3 3.6-.46-2-7.91 2.46-2.36 2-5 4.42-7.61 6.78a50.94 50.94 0 01-8.45 6.3l-.06-.29c-1.77 1.07-3.32 2.1-4.78 3.13s-2.81 2.08-4.06 3.08c-2.47 2-4.69 4-6.78 5.91s-4.21 3.82-6.47 5.55c-1.14.88-2.34 1.75-3.62 2.61s-2.63 1.6-4.11 2.38l.89-1.23a27.43 27.43 0 00-3.71 2.12c-1.36.84-2.86 1.85-4.44 2.91s-3.26 2.08-5 3.11c-.86.49-1.74 1-2.63 1.45s-1.79.82-2.69 1.18c2.07-.79 4.32-.78.31 1.65-1 .43-2 .91-3 1.31s-1.82.78-2.68 1.18-1.67.78-2.46 1.18-1.59.68-2.36 1c-1.54.65-3 1.28-4.48 1.84a15.34 15.34 0 01-2.27.7c-.77.19-1.55.36-2.35.51-1.73 1.17-3.43 2.44-5.28 3.49-1.86.55-4 1.3-6.53 2l-4 1.1c-1.43.37-2.89.84-4.5 1.17-3.2.7-6.61 1.59-10.41 2.22-1.89.33-3.79.77-5.83 1.06l-6.24.94c-8.6 1.14-18.16 2-28.34 2.46s-21 .46-32 .21-22.15-.76-33.09-1.44c-5.44-.33-10.78-.59-16-1l-15-1.08c-4.82-.33-9.44-.72-13.79-1.09l-12.22-1c-7.56-.65-13.85-1.31-18.46-1.75l1.47-.09c-28.08-2.58-71-7.71-114.33-13.33-21.67-2.77-43.49-5.58-63.57-8s-38.47-4.49-53.28-5.84a123.61 123.61 0 00-15.31-3.11c-5.47-.82-11-1.49-15.76-2.27 5.23 1.25 3.29 2.07-.84 1.51-7.26-.93-11-1.31-13.06-1.43s-2.29 0-2.58.14c-.57.29-1.2.68-16-.66-17.07-1.11-58.11-5.42-99.1-8l-15.32-.89-7.55-.44-7.45-.32-14.39-.64c-4.67-.17-9.19-.26-13.51-.4l-12.3-.36-10.82-.13-9-.16c-2.68-.06-5-.1-6.94-.1-4.13.67-8.51 1.12-13 1.44-2.26.15-4.55.28-6.85.39s-4.62.29-6.94.42c-9.27.57-18.5.9-26.56 2.35l1.59-.64c-8.67 1-37.72 3.17-67 7.46l-21.7 3.47c-7 1.3-13.75 2.65-19.89 3.84l-4.48.89c-1.45.3-2.85.66-4.21 1l-7.53 1.79c-4.59 1.11-8.28 2-10.74 2.73l2.75-.34c-4.27 1.33-7.32 2.27-9.75 2.87a43.55 43.55 0 01-5.93 1.07 81.16 81.16 0 00-13.24 2c1.23.93-1.75 2.73-5.65 4.6a112.28 112.28 0 01-11.51 4.7v-.57c-4.06 1.51-10.64 4.21-17.79 7.21-3.57 1.51-7.32 3.06-11 4.55s-7.25 2.93-10.57 4.14l.09-1.43c-10.71 5.16-31.67 11.88-39.5 14.77-9.12 2.91-20.8 6.23-33.09 9.94s-25.18 7.75-36.88 12.3c-5.52.3-11 .69-16.49.91l-2.15 1s-.77 3.18-1.42 8a85.43 85.43 0 00-.74 17.67c1 12.84 6.18 25.89 24.41 25.75l-.16 1.44 6.57-2.14c8.14-1.72 11.27-4.4 11.15-2.95l-5.42 1.61-5.38 1.6c8.09-2 2.73.32-.11 2 3.37-.87 6.67-1.67 9.41-2.12 1.41-1-1.31-.17-2.63-.06 4.12-1.79 9.69-4.81 15-5.89 8.06-2.5 1.17 1.88 10.59-1 49.61-15.32 95.79-31.6 143.09-45.41 1.23.22-.06.57-1.36 1.19 3.53-1.13 7-2.28 10.35-3.23l10-2.82c6.58-1.69 13-3.29 19.47-5.14a13.13 13.13 0 016.12.65c-.6-.16 3.62-1.23 10.32-2.75l5.44-1.22c1.95-.43 4-.89 6.18-1.25l13.65-2.45c2.34-.4 4.68-.87 7-1.2l6.87-1 12.29-1.72c7.27-.96 12.29-1.39 12.6-1.37z"/></g><g id="Layer_1-2" data-name="Layer 1"><path class="cls-4" d="M973.52 608.29c10.25 7.48 19 15.76 29.35 21 21.08 10.79 43.74 15.94 66 4.14 10.4-5.52 18.74-15 27.92-22.72a69.91 69.91 0 006.91-6.86c1.64-1.86 3.58-3.84 4.14-6.08.26-1-2.76-4.15-3.83-3.94a11.22 11.22 0 00-6.38 3.86c-9.25 12.5-20.63 22.74-34.83 28.64-7.23 3-16.77 5.21-23.74 3-11.36-3.62-22.89-9.57-31.77-17.45-11.39-10.11-12.94-24.91-10.57-39.81.93-5.87 3.47-7.38 9.57-6.13 25.11 5.11 48.23-.92 69.62-14.26a13.41 13.41 0 005.63-8.17c2-11.81-1.94-22.22-10.17-30.72-14-14.44-34.76-15.93-53.51-4.39-18.46 11.36-29.77 28.62-39.55 47.21-6.57 12.5-10.49 25.45-8.26 39.83.33 2.08-1 4.88-2.4 6.7-5.51 7.14-13.18 10.42-21.4 14.19-20.31 9.36-45.52 9.22-61.9-5.55-18.53-16.71-21.35-22-9.79-46.08.6-1.25 1.83-2.34 2.08-3.63 2.29-12 10.55-12.91 20.47-11.48 3.23.47 8.34.88 7-4.51-.53-2.2-5.2-3.94-8.29-4.81-2.54-.7-5.54.18-10 .46 7.82-12.39 15-23 21.2-34.1 1.74-3.13 1.23-7.95.49-11.75-.23-1.17-4.86-2.51-7.13-2.05-5.7 1.13-11.13 3.51-16.79 4.88-4.91 1.18-6.56 4.39-7.63 8.85-2.23 9.3-5.15 18.44-7.32 27.75-1.42 6.07-4.39 9.12-10.9 9.24-3.69.08-9.09.4-7.83 6.34 1.32 6.21 6 4.22 10 2.78.26-.1.73.4 1.43.81A29.52 29.52 0 01860 558c-5.66 11.79-11.09 23.71-17.21 35.26-8 15.11-18.35 27.93-34.3 35.85-18.92 9.39-36.22 3.79-44.17-15.85-6.62-16.35-7.8-33.56-2.36-50.23 7.12-21.83 1.94-16.48 24-18.71.24 0 .53.11.7 0 2.3-1.35 4.57-2.72 6.86-4.09-2.79-1.42-5.48-3.73-8.38-4-4.11-.45-8.38.59-14 1.12 6.17-11.27 11.26-20.95 16.73-30.42 4.22-7.28 4-8.67-3.35-12.56-8.62-4.56-17.57-.06-19.66 9.28-1.36 6.11-4.4 11.84-5.7 18-2.7 12.6-9.76 19.3-22.9 19.7-1.44 0-2.78 3.27-4.16 5 1.95 1 3.95 3 5.85 3 3.57-.17 7.09-1.55 11.57-2.65a64.23 64.23 0 01-1.15 6.94c-8.85 29.89-26.58 52-55.8 64.37-29.45 12.43-71.18 8.65-84.63-35.59-1.92-6.29-2.12-13.07-3.23-20.43 4.39.55 7.14.84 9.88 1.25 28.85 4.2 53.33-4.25 73.86-24.93 14.6-14.71 4.76-33.18-10-36.46-17.18-3.82-33.2-1.35-49.54 4.09-24.71 8.24-40.74 23.93-48.64 49.06-9.44 30.07 1.79 52.22 26.48 66.33 19.24 11 40.74 12.56 61.72 13.37 25.43 1 46.56-10.63 62.81-30.35 6-7.31 11.58-15 17.33-22.53 1.63 10.08 2.79 20.22 4.93 30.14 5.77 26.83 36.9 38.63 60.68 24.62 15-8.83 27.43-20.17 36.46-35.17 1.93-3.19 4.72-5.87 7.61-9.41 11.89 23.65 30 35.79 54.82 39.64 25.83 3.88 44.18-9.33 60.41-23.35zm-353.15-210.2c4 6.64 7.29 11.88 10.43 17.2 10.06 17 20 34.21 30.25 51.12 1.22 2 4.43 3.39 6.94 3.83a124.87 124.87 0 0016.08 1.38c8.15.35 16.34 1 24.45.5 6.89-.43 10.06-5.19 9.78-11.18-.68-14.53-3-29.35-1.08-43.57 4.37-32.44-3.34-63.88-5.31-95.76-.13-2.06-1.14-4.05-1.59-6.11-1.33-6-6.11-8.75-11.24-9a238.35 238.35 0 00-28.65.63c-1.29.09-3.8 3.79-3.36 4.82 7.22 17.2 7 35.6 8.79 53.62.73 7.23.12 14.59.12 21.89l-2.16.45c-2.94-5.48-5.82-10.91-8.82-16.36-9.84-17.79-19.53-35.67-29.75-53.24-1.57-2.7-5.73-5.65-8.59-5.55-16.35.55-32.68 1.95-49 3.17-3.69.27-5.58 1.51-5.07 6.25 2 18.84 3.75 37.73 4.9 56.63 1.68 27.58 2.78 55.19 4.07 82.78a9 9 0 01-.59 4.59c-3.46 6.29-2.85 7.64 4.44 8.27 10.46.91 21 1.44 31.38 2.67 6.43.75 8-2.19 7.43-7.66-1.28-13.74-2.87-27.46-3.72-41.24-.6-9.4-.13-18.87-.13-30.13zm282.1 32.71l1.4-.85c10.36 11.61 20.69 23.23 31.12 34.78 1.12 1.25 2.94 3 4.24 2.81 14.35-1.75 28.72-3.48 42.95-6 4.83-.85 5.55-4.6 1.83-8.36-4.11-4.16-8.3-8.25-12.33-12.49-16.35-17.21-32.64-34.48-50.21-53.05 9.38-3.44 16.58-5.93 23.68-8.7 25.12-9.78 32.24-38.63 14.1-58.48-15.37-16.8-33.68-28.86-57.27-29.7a116.59 116.59 0 00-27.72 2.24c-11.78 2.46-14 5.88-13.86 17.77.2 13 1.56 26 1.59 38.94.08 35.77-.18 71.54-.57 107.31 0 4.56.31 7.2 5.51 8.62 14 3.84 26.83-2.11 40.06-4.31 1.16-.2 2.77-4.49 2.31-6.46-1.89-8.1-4.49-16.05-6.83-24.07zm216.71-52.52l-1.7-.46c.68-12.3-2.2-27.19-7.28-33.79-15-19.5-31.81-37-55.8-45.34-14-4.86-28.16-9-43.26-6.43-11.23 1.89-14.75 7.94-12.48 19.26 1.42 7.06 1.64 14.35 2.35 21.55 2.25 23.22 3.83 46.54 6.93 69.65 2.45 18.26 7.65 36.17 4.19 54.88-.27 1.48.73 4.45 1.66 4.69 6.67 1.71 13.68 4.61 20.19 3.82 9.09-1.11 18.09-4.48 26.69-8 21.34-8.66 37.93-23.6 48.37-43.75 5.64-10.83 6.9-23.97 10.14-36.08zM773.84 335.9c10.76 0 20.76-.12 30.76.05 5.84.1 11.71 1.13 17.5.74 2.07-.14 5.64-3.24 5.63-5 0-10-.79-20.06-1.53-30.07-.45-6.05-3.81-8.36-10-7.78q-32.46 3-65 5.53c-13.9 1.06-19.11 6.36-18.93 20.09 0 1.4.12 2.81.17 4.21 1.36 34.55 2.81 69.1 4 103.65.39 11 .05 22 .34 33 .18 6.8 3.31 8.91 10 7.62 2.74-.53 5.62-1.25 8.33-1 23 2.53 45-4.61 67.37-7.53 4.58-.6 5.84-3 5.31-7.25-1.11-8.8-2.3-17.6-2.91-26.43-.4-5.76-2.71-7.59-8.45-7.14-11.88.95-23.8 1.16-35.7 1.88-5.12.3-6.6-1.95-6.15-6.72.72-7.68.86-15.42 1.84-23.07.22-1.72 2.72-4.24 4.45-4.5 8.09-1.17 16.36-1.21 24.4-2.6 5.32-.93 11.31-2.31 15.25-5.6s4.17-8.6 1.85-14.6c-3-7.77-3.89-9.17-12.63-8.41-11.7 1-23.46 1.3-36 1.94z"/><path d="M1103.93 593.83c1.07-.19 4.09 2.94 3.83 3.94-.55 2.25-2.47 4.24-4.13 6.08a63.92 63.92 0 01-6.92 6.85c-9.18 7.78-17.51 17.21-27.9 22.74-22.22 11.79-44.88 6.63-66-4.13-10.28-5.27-19.09-13.56-29.33-21-16.25 14-34.56 27.23-60.43 23.21a79.67 79.67 0 01-20.56-5.86l3.13-7.44c15.4 7 34.53 5.53 50.56-1.84 8.21-3.8 15.88-7.08 21.37-14.22 1.43-1.81 2.76-4.61 2.43-6.67-2.25-14.41 1.69-27.38 8.25-39.87 9.77-18.57 21.08-35.82 39.54-47.2 18.75-11.54 39.54-10.06 53.5 4.38 8.26 8.51 12.12 18.94 10.21 30.73a13.51 13.51 0 01-5.64 8.18c-21.41 13.34-44.51 19.38-69.64 14.26-6.08-1.25-8.62.26-9.58 6.12-2.36 14.92-.81 29.7 10.57 39.83 8.88 7.85 20.42 13.82 31.8 17.43 7 2.25 16.51 0 23.73-3 14.19-5.89 25.57-16.13 34.82-28.63a11.39 11.39 0 016.39-3.89zm-36-47c2.8-1.4 6.41-6.23 5.82-8.52a69 69 0 00-8.7-20.15c-2.94-4.5-8.69-5.34-13.85-2.4a196.59 196.59 0 00-17.83 11c-11.32 8.18-23.18 15.91-29.26 30.32 23.21 6.05 43.89-.47 63.82-10.23zm-45.1-24c-6.67-5.6-8.59.37-12.57 3 6.05 5.32 8.33-.32 12.57-3.01z"/><path d="M907.46 494.85c.74 3.8 1.25 8.63-.48 11.76-6.23 11.13-13.37 21.7-21.22 34.12 4.49-.3 7.48-1.18 10-.48 3.09.88 7.77 2.62 8.29 4.83 1.33 5.38-3.8 5-7 4.49-9.91-1.43-18.16-.55-20.45 11.46-.26 1.33-1.47 2.4-2.1 3.65-11.53 24.1-8.73 29.37 9.8 46.1a43.74 43.74 0 0011.35 7.4l-3.13 7.44c-14.59-6.33-25.94-17.24-34.23-33.78-2.91 3.53-5.71 6.22-7.63 9.39-9 15-21.48 26.35-36.48 35.19-23.76 14-54.9 2.21-60.65-24.61-1.07-5-1.91-10.06-2.65-15.11l8.44-1.33a80.35 80.35 0 005 17.84c7.92 19.64 25.24 25.24 44.14 15.84 16-7.92 26.31-20.74 34.31-35.85 6.12-11.53 11.57-23.47 17.21-35.26a25.38 25.38 0 001.36-4.46c-.7-.41-1.14-.92-1.44-.81-4 1.43-8.69 3.42-10-2.8-1.26-5.94 4.12-6.27 7.81-6.34 6.52-.11 9.51-3.17 10.91-9.25 2.17-9.28 5.08-18.42 7.33-27.75 1.07-4.45 2.73-7.66 7.63-8.84 5.63-1.36 11.09-3.76 16.76-4.86 2.26-.48 6.9.85 7.12 2.02zM885.79 521c2.07-2.88 4.17-5.71 6.38-8.73-3.61.62-6.27 1.1-9.62 1.69.3 2.06.63 4.35 1 6.63.73.09 1.45.24 2.24.41z"/><path d="M793.45 540.18c-2.28 1.36-4.53 2.72-6.85 4.09-.15.11-.44 0-.7 0-22.07 2.21-16.87-3.1-24 18.71a69.32 69.32 0 00-2.61 32.39l-8.44 1.33c-.77-5-1.47-10.06-2.28-15.07q-4.31 5.64-8.57 11.37l-8.66-4.9c7.51-9.91 13.08-21.56 17-34.6a68 68 0 001.14-7c-4.5 1.11-8 2.51-11.57 2.69-1.88.08-3.91-1.91-5.86-3 1.4-1.73 2.73-4.94 4.16-5 13.16-.37 20.2-7.11 22.92-19.68 1.29-6.12 4.31-11.86 5.68-18 2.1-9.32 11.05-13.82 19.67-9.29 7.37 3.91 7.56 5.31 3.36 12.57-5.49 9.47-10.58 19.16-16.73 30.44 5.6-.56 9.87-1.59 14-1.15 2.89.37 5.58 2.66 8.34 4.1z"/><path d="M731.37 588.08L740 593c-2.88 3.79-5.75 7.55-8.77 11.2-16.25 19.71-37.4 31.36-62.83 30.36-21-.81-42.48-2.39-61.72-13.37-22.47-12.86-33.82-32.36-28.52-58.48l7.41.11c5 .29 7.48.44 9.91.55a10.48 10.48 0 00.67-1.66l8.47.12c1.11 7.36 1.33 14.18 3.21 20.45 13.48 44.25 55.19 48 84.63 35.59 16.54-6.95 29.29-17.01 38.91-29.79z"/><path d="M678.42 501.67c14.74 3.28 24.58 21.78 10 36.48-20.52 20.67-45 29.11-73.87 24.91-2.73-.41-5.49-.7-9.88-1.25l-8.47-.12c1.06-3.68-2.18-4.31-5-4.16-1.51.07-2.91 2.69-5.56 5.27l-7.41-.11a77.75 77.75 0 012-7.85c7.92-25.13 23.95-40.83 48.64-49.08 16.35-5.42 32.38-7.88 49.55-4.09zM683.8 530c5.56-8.29 2.14-17.06-7.78-18.83a38.79 38.79 0 00-11.12-.37c-17 2-30.77 10.8-42.78 22.07-5.79 5.42-9.69 12.75-14.45 19.24.41.92.78 1.84 1.18 2.76 10.39 0 21 1.33 31.06-.29 17.28-2.83 33.39-8.99 43.89-24.58zm-64.48-6.19c-.19-.63-.37-1.25-.52-1.88-2.58.66-5.38.92-7.63 2.17-.62.37.41 3.65.89 7 3.42-3.45 5.34-5.37 7.26-7.32z"/><path class="cls-5" d="M620.37 398.09c0 11.26-.47 20.73.11 30.13.85 13.78 2.44 27.5 3.72 41.24.52 5.47-1 8.41-7.43 7.66-10.42-1.23-20.92-1.76-31.38-2.67-7.29-.63-7.9-2-4.44-8.27a9 9 0 00.59-4.59c-1.29-27.59-2.39-55.2-4.07-82.78-1.15-18.9-2.89-37.79-4.9-56.63-.51-4.74 1.38-6 5.07-6.25 16.33-1.22 32.66-2.62 49-3.17 2.86-.1 7 2.85 8.59 5.55 10.22 17.57 19.91 35.45 29.75 53.24 3 5.41 5.89 10.88 8.83 16.32l2.16-.45c0-7.3.61-14.66-.12-21.89-1.83-18-1.57-36.42-8.79-53.62-.44-1 2.07-4.73 3.36-4.82a238.35 238.35 0 0128.65-.63c5.13.29 9.91 3 11.24 9 .45 2.06 1.46 4.05 1.59 6.11 2 31.88 9.68 63.32 5.31 95.76-1.92 14.22.4 29 1.08 43.57.28 6-2.89 10.75-9.78 11.18-8.11.49-16.3-.15-24.45-.5a124.87 124.87 0 01-16.06-1.34c-2.51-.44-5.72-1.85-6.94-3.83-10.3-16.91-20.19-34.07-30.25-51.12-3.15-5.29-6.4-10.56-10.44-17.2zM708.54 365l-.42.08v30.05L710 395q-.72-15-1.46-30zm-52.9 60.37l16.41-2.64c-3.7-6.11-11.23-5.19-16.41 2.64zm11.3 30.76l2.88-2.47-13.36-14.55-1.46 1.24c4.64 4.75 5.76 12.26 11.94 15.78zM596.15 339c-5.94-.39-9.4 1.24-10.33 7.18 6.18 2.01 8.34-1.4 10.33-7.18zm.27 63.11c.45 1.14.9 2.27 1.34 3.41l10.33-3.92c-.79-1-1.84-2.95-2.32-2.82-3.19.81-6.25 2.12-9.35 3.28zM902.47 430.8c2.34 8 4.94 16 6.83 24.08.46 2-1.15 6.26-2.31 6.46-13.23 2.2-26 8.15-40.06 4.31-5.2-1.42-5.56-4.06-5.51-8.62.39-35.77.65-71.54.57-107.31 0-13-1.39-26-1.59-38.94-.19-11.89 2.08-15.31 13.86-17.77a116.59 116.59 0 0127.74-2.22c23.59.84 41.9 12.9 57.27 29.7 18.14 19.85 11 48.7-14.1 58.48-7.1 2.77-14.3 5.26-23.68 8.7 17.57 18.57 33.86 35.84 50.21 53.05 4 4.24 8.22 8.33 12.33 12.49 3.72 3.76 3 7.51-1.83 8.36-14.23 2.49-28.6 4.22-42.95 6-1.3.16-3.12-1.56-4.24-2.81-10.43-11.55-20.76-23.17-31.12-34.78zM905 333l-3.05 1.86q.63 6.15 1.25 12.28l2.4 1c2.22-2.23 6.67-5.17 6.23-6.55-1.09-3.23-4.45-5.74-6.83-8.59zM1119.18 378.28c-3.24 12.11-4.5 25.25-10.14 36.11-10.44 20.15-27 35.09-48.37 43.75-8.6 3.49-17.6 6.86-26.69 8-6.51.79-13.52-2.11-20.19-3.82-.93-.24-1.93-3.21-1.66-4.69 3.46-18.71-1.74-36.62-4.19-54.88-3.1-23.11-4.68-46.43-6.93-69.65-.71-7.2-.93-14.49-2.35-21.55-2.27-11.32 1.25-17.37 12.48-19.26 15.1-2.55 29.3 1.57 43.26 6.43 24 8.37 40.8 25.84 55.8 45.34 5.08 6.6 8 21.49 7.28 33.79zm-78.75-40.46c1.11 8.12 2 13.19 2.46 18.31 1.36 15.53 5.7 30.75 3.18 46.75-1 6.28 2 13.17 3.28 20.79 15.92-8.29 27.93-19.14 31.93-35.14 3.36-13.49 2.33-28.73-10.24-37.84-8.3-6.02-19.32-8.31-30.61-12.87zm57.85 71.29c-.36-.58-.73-1.15-1.1-1.72l-12.91 2.32-.57 2.05c3.1.86 6.28 2.53 9.3 2.29 1.88-.16 3.53-3.2 5.28-4.94zM1046 311.44l-1.2-1.43-9.28 6.22 5.46 4.19zM773.84 335.9V357c12.54-.64 24.3-.92 36-1.94 8.74-.76 9.61.64 12.63 8.41 2.32 6 2 11.34-1.85 14.6s-9.93 4.67-15.25 5.6c-8 1.39-16.31 1.43-24.4 2.6-1.73.26-4.23 2.78-4.45 4.5-1 7.65-1.12 15.39-1.84 23.07-.45 4.77 1 7 6.15 6.72 11.9-.72 23.82-.93 35.7-1.88 5.74-.45 8.05 1.38 8.45 7.14.61 8.83 1.8 17.63 2.91 26.43.53 4.24-.73 6.65-5.31 7.25-22.4 2.92-44.32 10.06-67.37 7.53-2.71-.3-5.59.42-8.33 1-6.71 1.29-9.84-.82-10-7.62-.29-11 0-22-.34-33-1.23-34.55-2.68-69.1-4-103.65-.05-1.4-.15-2.81-.17-4.21-.18-13.73 5-19 18.93-20.09q32.5-2.49 65-5.53c6.18-.58 9.54 1.73 10 7.78.74 10 1.52 20.05 1.53 30.07 0 1.75-3.56 4.85-5.63 5-5.79.39-11.66-.64-17.5-.74-10.1-.26-20.1-.14-30.86-.14zm.1-4.7c5.4-.54 10.8-1.06 17.83-1.74-7.84-5.72-12.77-1.68-17.83 1.74z"/><path class="cls-6" d="M607.69 552.09c4.76-6.46 8.69-13.82 14.44-19.23 12-11.28 25.81-20.07 42.78-22.08a38.84 38.84 0 0111.13.39c9.96 1.83 13.33 10.55 7.78 18.83-10.49 15.62-26.59 21.78-43.89 24.57-10.09 1.63-20.68.3-31 .3zM1004.14 557.08c6.08-14.4 18-22.14 29.25-30.32a196.07 196.07 0 0117.83-11c5.18-2.95 10.92-2.11 13.88 2.4a68.8 68.8 0 018.68 20.16c.58 2.25-3 7.11-5.81 8.49-19.97 9.84-40.6 16.35-63.83 10.27z"/><path class="cls-7" d="M1022.87 522.84c-4.25 2.67-6.53 8.31-12.57 3 3.96-2.61 5.89-8.6 12.57-3zM883.54 520.59c-.33-2.28-.66-4.55-.95-6.61l9.6-1.72-6.38 8.74zM619.33 523.82l-7.23 7.31c-.48-3.38-1.51-6.67-.89-7 2.24-1.26 5-1.53 7.61-2.17zM595.54 563.39c-2.43-.13-4.9-.26-9.92-.55 2.64-2.61 4.06-5.21 5.59-5.27 3.18-.16 6.94.66 4.33 5.82zM708.54 365l1.5 30-1.92.13v-30.05zM655.64 425.37c5.18-7.83 12.71-8.75 16.41-2.64zM666.94 456.13c-6.18-3.52-7.3-11-11.92-15.78l1.44-1.24 13.36 14.55zM596.15 339c-2 5.83-4.19 9.24-10.33 7.18.93-5.99 4.39-7.62 10.33-7.18zM596.42 402.06c3.1-1.16 6.16-2.47 9.35-3.33.48-.13 1.53 1.83 2.32 2.82l-10.33 3.92c-.44-1.14-.89-2.27-1.34-3.41zM905 333c2.43 2.81 5.79 5.32 6.83 8.56.44 1.38-4 4.32-6.23 6.55l-2.4-1q-.61-6.14-1.25-12.28z"/><path class="cls-6" d="M1040.43 337.82c11.29 4.56 22.31 6.85 30.61 12.87 12.57 9.11 13.6 24.35 10.24 37.84-4 16-16 26.85-31.93 35.14-1.33-7.62-4.27-14.51-3.28-20.79 2.52-16-1.82-31.22-3.18-46.75-.45-5.13-1.35-10.19-2.46-18.31z"/><path class="cls-7" d="M1098.28 409.11c-1.75 1.74-3.4 4.78-5.28 4.94-3 .24-6.2-1.43-9.3-2.29l.57-2.05 12.91-2.32c.37.61.74 1.14 1.1 1.72zM1046 311.44l-5 9-5.46-4.19 9.28-6.22zM773.94 331.2c5-3.42 10-7.46 17.83-1.74-7.03.68-12.43 1.2-17.83 1.74z"/><path class="cls-4" d="M479.25 889.39c-9-1.21-17.33-2.44-25.73-3.49-15.88-2-17.45-.9-22 14.41-4.25 14.38-4.25 14.38-20 15.19-14.47.77-14.9.72-16.8 14.91-3.82 28.31-8.53 56.61-10.31 85.08-4.05 64.87-7 129.82-9.39 194.8-.63 16.76 2.32 33.68 3.74 50.54 1.8 21.52 3.8 43 5.57 64.54 1.31 15.9 2.27 31.86 3.63 47.77.54 6.45-.49 15.34 3.2 18.63 4.2 3.71 12.86 3 19.61 3.21 31.64.9 63.31 2.11 95 2 33.27-.15 66.56-2.6 99.83-2.38 26 .16 51.94 3.22 77.94 4.37 28.5 1.27 57 1.85 85.56 2.72 6.22.18 13.69 2.49 18.42-.12 11.28-6.22 23.13-3 31.22 1.42 10.26 5.67 20 6.51 30.34 6.36 18.83-.29 37.65-2.19 56.47-2.2 40.89 0 81.51 2.73 122 9.35 34.06 5.57 68.6 8.09 102.89 12.3 44 5.42 87.86 11.18 131.82 16.71 6.45.81 10.15-1.47 9.58-9a141.71 141.71 0 01-.06-21.61c1.55-19.41 4.48-38.72 5.21-58.11 1.86-51.13 2.94-102.31 4.15-153.47.66-29.16.24-58.37 1.65-87.49 1.35-27.86 4-55.68 6.81-83.43 4.23-42.37 18-83.45 17-126.62-.2-8.64-3.19-10.65-10.81-11.21-14-1-28-3.11-42.06-4.42-6.34-.59-7.18-4-7.11-9.55.16-11.26-.06-22.55-.94-33.77-.48-6-3.86-9.73-11-8-6.68 1.66-13.57 2.43-20.25 4-7.76 1.86-11.58-.27-10.53-8.78a32.62 32.62 0 00.1-7.52c-.75-6.48-2.64-10.81-11.11-10-27.48 2.51-55.09 3.68-82.57 6.34-50 4.86-96.9 20.77-142 42.15-25.22 12-49.58 25.77-75 37.21-24.48 11-44.78 27.64-65.09 44.38-6.22 5.13-10.67 8.79-17.82 1.82-2.47-2.44-6.8-3.09-10.38-4.28-27-9.07-53.9-18.76-81.23-26.91-37.59-11.23-75.18-22.86-113.43-31.41-36.09-8.06-73-12.26-109.52-18.47-5.55-.93-8.27.89-10.08 5.66-2.16 5.56-4.39 10.98-6.52 16.37z"/><path class="cls-5" d="M479.25 889.39c2.13-5.36 4.36-10.81 6.42-16.32 1.81-4.77 4.53-6.59 10.08-5.66 36.51 6.21 73.43 10.41 109.52 18.47 38.25 8.55 75.84 20.18 113.43 31.41 27.33 8.15 54.18 17.84 81.23 26.91 3.58 1.19 7.91 1.84 10.38 4.28 7.15 7 11.6 3.31 17.82-1.82 20.31-16.74 40.61-33.39 65.09-44.38 25.45-11.44 49.81-25.25 75-37.21 45.11-21.38 92-37.29 142-42.15 27.48-2.66 55.09-3.83 82.57-6.34 8.47-.78 10.36 3.55 11.11 10a32.62 32.62 0 01-.1 7.52c-1 8.51 2.77 10.64 10.53 8.78 6.68-1.61 13.57-2.38 20.25-4 7.15-1.77 10.53 2 11 8 .88 11.22 1.1 22.51.94 33.77-.07 5.53.77 9 7.11 9.55 14 1.31 28 3.4 42.06 4.42 7.62.56 10.61 2.57 10.81 11.21 1 43.17-12.75 84.25-17 126.62-2.78 27.75-5.46 55.57-6.81 83.43-1.41 29.12-1 58.33-1.65 87.49-1.21 51.16-2.29 102.34-4.15 153.47-.73 19.39-3.66 38.7-5.21 58.11a141.71 141.71 0 00.06 21.61c.57 7.5-3.13 9.78-9.58 9-44-5.53-87.86-11.29-131.82-16.71-34.29-4.21-68.83-6.73-102.89-12.3-40.51-6.62-81.13-9.38-122-9.35-18.82 0-37.64 1.91-56.47 2.2-10.36.15-20.08-.69-30.34-6.36-8.09-4.47-19.94-7.64-31.22-1.42-4.73 2.61-12.2.3-18.42.12-28.54-.87-57.06-1.45-85.56-2.72-26-1.15-52-4.21-77.94-4.37-33.27-.22-66.56 2.23-99.83 2.38-31.66.14-63.33-1.07-95-2-6.75-.18-15.41.5-19.61-3.21-3.69-3.29-2.66-12.18-3.2-18.63-1.36-15.91-2.32-31.87-3.63-47.77-1.77-21.52-3.77-43-5.57-64.54-1.42-16.86-4.37-33.78-3.74-50.54 2.4-65 5.34-129.93 9.39-194.8 1.78-28.47 6.49-56.77 10.31-85.08 1.9-14.19 2.33-14.14 16.8-14.91 15.78-.81 15.78-.81 20-15.19 4.54-15.31 6.11-16.38 22-14.41 8.5 1.05 16.85 2.23 25.83 3.44zm686.6 488.45c.47-4.92.1-9.54 1.42-13.61 11.51-35.67 8.67-72.86 11.38-109.36 2.77-37.49 1.82-75.28 3.54-112.86 2-43.32 2.66-86.56-1.68-129.75-3.42-34.09 1.26-67.7 6.16-101.27 3.51-24.22 8.74-48.21 6.7-73-.53-6.36-1.77-10-9.28-9.5-13.46.82-26.95.73-40.42 1.22a413.65 413.65 0 00-120.87 22.64c-26.57 9.23-52.28 21.18-77.76 33.21-34 16.06-67.65 32.7-98.2 55.36-18.9 14-27.54 29-26.44 53.56 1.58 35-2.86 70.18-3.49 105.28q-2 113.54-2.62 227.1c-.12 20.27 1.85 40.57 3 62.39 116.84-12.16 232.87-20.61 348.56-11.41zm-359.33 10.33c-.44-34.18-1.31-66.49-1.15-98.79.25-50.22.8-100.44 1.92-150.62 1.23-55.87 3.06-111.72 5-167.54.37-10.5-4.65-15.36-13.7-18.35-34-11.18-67.66-23.75-102.07-33.57-41.68-11.91-83.87-22.21-126.14-31.9-21.07-4.84-42.79-6.85-64.26-9.9-9.27-1.31-15 2.79-16.74 12.22-1.16 6.22-3.23 12.3-3.89 18.57q-3.17 30.93-5.58 62c-5.81 76.1-11 152.25-17.33 228.32a1052.36 1052.36 0 00-1.45 148.66c.86 14.47 1.06 14 15.37 14.65 30.1 1.32 60.23 2.38 90.21 5.09 25.33 2.25 50.38 7.66 75.7 9.9 41 3.65 82.1 5.88 123.15 8.65 13.72.88 27.44 1.76 40.96 2.61zm-221.41-5.26c0-.83-.08-1.63-.13-2.42a15.71 15.71 0 00-3.48-1.18c-40.52-5.54-81.2-8-122-5.88-5.48.29-9.55.43-9.75-6.37-.94-32-3.82-64.14-2.36-96.07 2.29-50.16 7.45-100.19 11.5-150.26q8-99.49 16.22-199c2-24.1 2-23.84-23.4-26-7-.59-11 1.47-12.44 8.09-3.39 15.34-7.39 30.61-9.68 46.11-4.61 31.05-8.17 62.23-12.28 93.36-3.18 24-7 47.87-9.7 71.9-3.11 28-4.22 56.31-8 84.24-7.81 57.63-5.19 115.18-1.32 172.85.48 7.2 3.22 10.75 10.6 11.24 9.69.6 19.32 2.55 29 2.59q51.36.18 102.73-.65c14.79-.23 29.63-1.65 44.49-2.55zm635 8.59c.38-7.16 1.18-12.76.88-18.29-2-36-5.5-72-6-108-.53-38.21 1.38-76.48 2.85-114.7 1.89-49.21 3.92-98.44 6.84-147.6 1.7-28.49 5.31-56.84 7.95-85.26 1.67-18.06 3.85-36.1 4.48-54.21.5-13.75-.76-14-13.87-11.56-3.71.66-7.5.77-11.23 1.19-4.9.56-7.45 2.51-8.08 8.22-1.86 16.49-5.16 32.83-7 49.32-2.93 26.79-6.34 53.62-7.25 80.5-.81 23.45 2.41 47 2.26 70.51-.23 34.74-2.1 69.46-2.83 104.2-.59 27.58-.23 55.16-.83 82.73-.49 22-1.71 43.92-2.76 65.84-1.08 22.14-2.51 44.26-3.22 66.44-.07 2.46 3.18 6.88 5.42 7.25 10.13 1.66 20.44 2.25 32.36 3.42zm57.49-347.86c-1.7-5.74 4.92-12.63-4.6-15.17a145.48 145.48 0 00-25.85-4.12c-1.73-.15-5.27 3.91-5.38 6.17-.15 2.85 1.87 8 3.77 8.42 9.94 2.15 20.16 3.06 32.03 4.7zm-36.66 94.68c-.44 4.9-1.13 8.31-.94 11.67.14 2.46.92 6.58 2.3 7 8.79 2.58 17.81 4.36 26.69 6.39 3.85-16.06 3-17.52-11.42-21.26-5.11-1.3-10.28-2.35-16.66-3.8zm3.13-124.94c9.55 2.19 18.57 4.54 27.73 6.15 2.78.48 5.94-1.17 8.91-1.84-1.5-3.63-2.21-9.61-4.7-10.47-9.46-3.28-19.52-4.92-29.67-7.24-.95 5.46-1.58 9.02-2.34 13.4zm27.59 106.86l-32.23-5.17c2.16 6.48 2.48 13.23 5.12 14.33 7.87 3.27 16.65 4.33 26.23 6.53.32-6.15.61-11.27.85-15.69zm-3.69-143.1c4.35 1.32 8.17 3 12.11 3.5 2.07.27 5.84-1.07 6.27-2.44.58-1.92-.81-6.25-2.18-6.62a321.705 321.705 0 00-30.71-7.14c-1.51-.28-3.65 2.87-5.51 4.44 1.62 1.85 2.93 4.77 4.94 5.37 4.98 1.54 10.32 2.05 15.05 2.89zm.93 110c4.48-8.76 1.73-13.45-6.45-15.42-4.86-1.18-9.76-2.7-14.68-3-2.42-.11-7.17 2.72-7 3.57.54 3.25 2 8.13 4.29 9 7.47 2.71 15.55 3.94 23.81 5.83zm-25.73 5c-2.2 13.06-2.22 13.12 9.5 15.42 5.48 1.08 11 1.91 16.51 2.86 1.82-13.18-3.83-17.09-26.04-18.33zm25.64 97.15c-8.08-1.85-15.88-4-23.82-5.18-2.08-.31-4.63 2.52-7 3.9 1.54 2.56 2.49 6.42 4.72 7.42 4.8 2.12 10.24 2.84 15.46 4 11.13 2.46 12.03 1.57 10.61-10.19zm7-123.64c-1.6-5.82-1.74-11.57-3.61-12.2-8.58-3-17.64-4.48-27.08-6.64-.21 6.06-.34 9.22-.43 11.74 9.56 2.15 18.59 4.22 31.05 7.05zm-80.5 360.25c-11.74-12.92-23.6-25.67-42.4-27.55 13.83 9.5 25.02 23.33 42.33 27.5zm44.1-199.95c-3.52 8.46-.86 12.17 6.91 13.13 4 .5 7.89 2.17 11.89 2.47 2.27.17 4.67-1.37 7-2.16-1.27-2.8-1.88-7.36-3.89-8.08-6.95-2.51-14.32-3.66-21.98-5.41zm6.71-235.33c10.66 2.45 20.62 4.94 30.7 6.87 2.29.43 4.93-1.13 7.41-1.77-1.48-2.29-2.48-5.88-4.55-6.63-6.44-2.37-13.33-3.47-19.93-5.47-6.87-2.11-11.56-.56-13.7 6.95zm23.58-46.74l-.06.34c5.45 1.23 10.87 2.74 16.39 3.6 1.67.25 3.62-1.21 5.42-1.89-.71-1.83-1.13-5-2.17-5.23-11.22-2.4-22.53-4.51-33.87-6.24-1.22-.19-2.87 2.43-4.33 3.74 1.61 1.07 3.08 2.67 4.84 3.1 4.47 1.09 9.08 1.7 13.71 2.53zM1239.1 1249c-1.5 10.13 7.7 15 23.77 13.1 1.66-9.62-3.6-12.6-23.77-13.1zm.07-44.77c-2.07 7.88-.38 11.26 6.28 12.17 5.56.73 10.93 2.85 16.5 3.66 1.71.26 3.76-1.71 5.66-2.66-1-1.94-1.6-5.07-3.09-5.59-8.18-2.89-16.58-5.09-25.35-7.63zm-832.58-158.76c.88-.73 1.74-1.48 2.61-2.22-.47-3.62.13-9.64-1.64-10.43-4.8-2.2-10.61-2.34-16.07-2.72-.32 0-2.15 6.86-1.34 7.35 5.17 3.16 10.9 5.45 16.44 8.02zm5.2-38.9c.4-4.81.74-8.8 1.09-13.1l-9.28-2.13-7.82-1.78c-2.63 11.44-1.42 12.73 16.01 17.01zM1111.73 1418l2.49-3.14c-5.55-4.6-11.44-8.89-16.58-13.91-5.44-5.33-10.07-11.66-20.13-7.26a7069 7069 0 0034.22 24.31zm-704.67-365.28l-16.44-2.5c-3.3 13.2-.06 16.21 14.79 14.57.43-3.2.9-6.57 1.65-12.07zM1249.67 953l40 9.14c-3.84-8.53-29.01-14.2-40-9.14zm-850.25-2.65c-2.35 9.41 3.08 14.26 17.5 15.59 2.71-9.21-1.08-12.58-17.5-15.63zm-1 119c-5.39 4.08-9.05 5.52-10.27 8.08-2.17 4.59-.75 8.58 5.24 9.4 4.33.6 9.58 2.25 9.78-4.53.13-3.3-2.26-6.58-4.72-12.97zM387 1094.89c.45 6.9-6.08 14.32 5.3 16.57 7 1.4 6.67-3.53 7.34-7.79 1.62-10.34-6.11-7.54-12.64-8.78zm881.48 86.17c1-7.41-17.42-15-29.88-11.1 8.63 6.62 20.21 6.21 29.83 11.1zm-6 101.86c-.28-3 .16-7.74-.86-8.06-6.79-2.25-13.9-3.54-21.76-5.34 1.93 8.41 5.6 10.37 22.61 13.4zm-847.9-298.87c1.36-9.12-.84-10.89-16.76-13.92-2.94 9.15 1.66 13.11 16.76 13.92zm7.72-45.64c-5.92-1.36-10.75-2.67-15.67-3.44-1.42-.24-3.11 1.11-4.68 1.73.69 1.6.92 4 2.12 4.66 5 2.79 10.29 5.08 16.32 7.94.78-4.43 1.24-7.13 1.91-10.89zm523.06 459.91c.34-.57.71-1.12 1-1.68-2.18-1.59-4.43-4.64-6.53-4.54-11.77.52-23.53 1.8-35.29 2.81 0 .64.09 1.28.13 1.94q20.33.7 40.69 1.47zm293.16 32.38l1.5-1.7c-2.92-2.42-5.91-4.8-8.76-7.32-3.93-3.48-9.63-6.37-11.24-10.74-2.94-7.93-8.4-7.43-15.1-6.5zm16.27-507.5l37.88 8.65c.17-.86.34-1.71.52-2.56-11.93-6.44-24.85-8.23-38.4-6.09zm-845.26 101.06c2.62-8.32-1.33-12.29-12-12.81-1.65-.06-4.56 1.33-4.8 2.47-.32 1.61.84 4.63 2.21 5.26 4.67 2.11 9.7 3.45 14.59 5.08zm834.33 284.51c.11 10.55 2.16 12.12 14.34 11.17 1.8-10.34 0-11.71-14.34-11.17zm-857.62-188.14c-3.12 11.26-2.28 12.42 9 12.54 3.02-11.57 2.41-12.44-9-12.54zm632.32 281.87l-18.35-12.42c-.47.72-.94 1.41-1.39 2.12 7.51 12.8 7.51 12.8 19.74 10.3zm223.38-114.63c1.67 9.91 9 12.73 20.21 8zM1161 1422c.59-.84 1.18-1.71 1.78-2.57q-10.82-7.2-21.63-14.47c-.6.88-1.19 1.77-1.77 2.64 9.16 1.97 10.85 14.76 21.62 14.4zm-770.83-267l5.25-2.7c-1.57-3.26-3.14-6.5-4.72-9.75-1.89 1.08-5.5 2.83-5.39 3.1a83.72 83.72 0 004.86 9.35zm635.75 239.12c-.27 5.16-.41 8.21-.6 11.92l13.08 1.41c.25-.74.48-1.46.74-2.18-3.84-3.27-7.7-6.52-13.22-11.18zm41 15.67c-8-5.82-14.32-10.36-20.63-14.91-.49.69-1 1.4-1.5 2.08 7.97 2.37 7.82 15.67 22.21 12.8zm182.89-69.22l7.46-4c-2.11-1.79-4-4.23-6.42-5.11-1.39-.49-3.72 1.56-5.58 2.47zm4.06 21.6c5.19-11.33.83-12.83-9.93-12.06 3.98 4.73 6.45 7.74 9.98 12.03z"/><path class="cls-7" d="M1165.85 1377.84c-115.69-9.2-231.72-.75-348.61 11.42-1.1-21.82-3.07-42.12-3-62.39q.66-113.56 2.62-227.1c.63-35.1 5.07-70.31 3.49-105.28-1.1-24.6 7.54-39.52 26.44-53.56 30.55-22.66 64.18-39.3 98.2-55.36 25.48-12 51.19-24 77.76-33.21a413.65 413.65 0 01120.87-22.64c13.47-.49 27-.4 40.42-1.22 7.51-.46 8.75 3.14 9.28 9.5 2 24.78-3.19 48.77-6.7 73-4.9 33.57-9.58 67.18-6.16 101.27 4.34 43.19 3.66 86.43 1.68 129.75-1.72 37.58-.77 75.37-3.54 112.86-2.71 36.5.13 73.69-11.38 109.36-1.22 4.06-.9 8.68-1.37 13.6zm-75.16-428.49c-33.35 3-66.28 8.53-97.77 20.19-17.07 6.33-33.78 13.67-50.45 21q-22.83 10-45.18 21.15c-1.84.92-2.22 4.77-3.29 7.25 2.69.49 5.9 2.18 8 1.28 40-17.27 79.47-36 120-51.91 22-8.67 45.73-12.79 68.69-18.96zM1079 1057.8c.09-1 .15-1.92.24-2.88-17.3 1.45-34.59 3-51.9 4.33-41.83 3.32-80.6 17.61-118.9 33.4-2.78 1.15-4.23 5.53-6.29 8.39 3.55.47 7.82 2.44 10.57 1.16 52.8-24.71 109.01-36.53 166.28-44.4zm-6.61 141.72c0-.59.09-1.2.13-1.8-1.62-.49-3.21-1.38-4.84-1.43-19.66-.75-39.31-1.92-59-1.91-35 .07-68.25 8.86-100.24 22.47-2.37 1-3.26 5.49-4.84 8.34 3 .48 6.33 2 9 1.22 5.39-1.44 10.44-4.16 15.7-6.18 41.09-15.85 84.24-18.62 127.6-19.93 5.58-.18 11.1-.52 16.53-.78zM806.52 1388.17c-13.53-.85-27.24-1.73-40.94-2.64-41.05-2.77-82.17-5-123.15-8.65-25.32-2.24-50.37-7.65-75.7-9.9-30-2.71-60.11-3.77-90.21-5.09-14.31-.65-14.51-.18-15.37-14.65a1052.36 1052.36 0 011.45-148.66c6.33-76.07 11.52-152.22 17.33-228.32q2.37-31 5.58-62c.66-6.27 2.73-12.35 3.89-18.57 1.76-9.43 7.47-13.53 16.74-12.22 21.47 3 43.19 5.06 64.26 9.9 42.27 9.69 84.46 20 126.14 31.9 34.41 9.82 68 22.39 102.07 33.57 9 3 14.07 7.85 13.7 18.35-2 55.82-3.79 111.67-5 167.54-1.12 50.18-1.67 100.4-1.92 150.62-.18 32.33.69 64.65 1.13 98.82zm-82-263.31c.18-.65.38-1.28.56-1.9-1.91-.72-3.79-1.54-5.73-2.15-25.44-7.92-51.16-15.06-76.27-23.88-32.66-11.51-65.87-18.75-100.56-17.91-3.56.09-9.89 2.74-10 4.62-.6 7.06 5.59 5.7 10.14 5.88 10.38.36 21-.68 31 1.35 31.66 6.44 63.08 14 94.59 21.14q28.17 6.38 56.31 12.85zm14.15-90.92c-4.51-2.17-9-5.17-14-6.5-8.6-2.29-17.57-3.14-26.24-5.28-6.45-1.6-12.6-4.4-19-6.39-2.87-.91-6-.91-8.92-1.79-3.23-1-6.19-3-9.46-3.67-21.78-4.54-43.56-9.25-65.46-13.15-19.14-3.44-38.45-6.1-57.74-8.55-2.48-.31-5.38 2.65-8.08 4.1 2.37 2.06 4.55 4.46 7.18 6.06 1.43.88 3.68.43 5.55.62 17.77 2 35.76 2.78 53.29 6.08 39.44 7.41 78.7 15.89 117.94 24.36 5.54 1.21 10.59 4.76 14.89 6.77 3.38-.86 6.43-1.67 10.09-2.66zm-83.92 193.93c.35-.74.69-1.52 1-2.25-5.1-2-10.08-5.35-15.29-5.75q-53.4-4.18-106.87-7.1c-4.81-.28-12.86-2.49-12.84 6.21 0 1.67 8.37 4.64 12.92 4.74 23.22.5 46.45-.25 69.65.39 17.24.49 34.34 2.46 51.47 3.76z"/><path class="cls-7" d="M585.11 1382.91c-14.86.9-29.7 2.32-44.56 2.54q-51.37.87-102.73.65c-9.68 0-19.31-2-29-2.59-7.38-.49-10.12-4-10.6-11.24-3.87-57.67-6.49-115.22 1.32-172.85 3.8-27.93 4.91-56.21 8-84.24 2.66-24 6.52-47.94 9.7-71.9 4.11-31.13 7.67-62.31 12.28-93.36 2.29-15.5 6.29-30.77 9.68-46.11 1.45-6.62 5.44-8.68 12.44-8.09 25.36 2.17 25.37 1.91 23.4 26q-8.13 99.51-16.22 199c-4 50.07-9.21 100.1-11.5 150.26-1.46 31.93 1.42 64 2.36 96.07.2 6.8 4.27 6.66 9.75 6.37 40.85-2.11 81.53.34 122.05 5.88a15.71 15.71 0 013.48 1.18c.04.8.12 1.6.15 2.43zM1220.08 1391.5c-11.92-1.17-22.23-1.76-32.37-3.47-2.24-.37-5.49-4.79-5.42-7.25.71-22.18 2.14-44.3 3.22-66.44 1-21.92 2.27-43.89 2.76-65.84.6-27.57.24-55.15.83-82.73.73-34.74 2.6-69.46 2.83-104.2.15-23.5-3.07-47.06-2.26-70.51.91-26.88 4.32-53.71 7.25-80.5 1.81-16.49 5.11-32.83 7-49.32.63-5.71 3.18-7.66 8.08-8.22 3.73-.42 7.52-.53 11.23-1.19 13.11-2.43 14.37-2.19 13.87 11.56-.63 18.11-2.81 36.15-4.48 54.21-2.64 28.42-6.25 56.77-7.95 85.26-2.92 49.16-5 98.39-6.84 147.6-1.47 38.22-3.38 76.49-2.85 114.7.51 36 4 72 6 108 .28 5.58-.52 11.18-.9 18.34zM1277.57 1043.64c-11.87-1.6-22.09-2.55-32.06-4.7-1.9-.42-3.92-5.57-3.77-8.42.11-2.26 3.65-6.32 5.38-6.17a145.48 145.48 0 0125.85 4.12c9.52 2.53 2.9 9.43 4.6 15.17zM1240.91 1138.32c6.38 1.45 11.55 2.5 16.63 3.81 14.45 3.74 15.27 5.2 11.42 21.26-8.88-2-17.9-3.81-26.69-6.39-1.38-.43-2.16-4.55-2.3-7-.19-3.37.5-6.78.94-11.68zM1244 1013.38c.72-4.35 1.35-7.94 2.27-13.4 10.15 2.32 20.21 4 29.67 7.24 2.49.86 3.2 6.84 4.7 10.47-3 .67-6.13 2.32-8.91 1.84-9.12-1.61-18.14-3.96-27.73-6.15zM1271.63 1120.24c-.24 4.42-.53 9.54-.88 15.69-9.58-2.2-18.36-3.26-26.23-6.53-2.64-1.1-3-7.85-5.12-14.33zM1267.94 977.14c-4.73-.84-10.07-1.35-15.08-2.89-2-.6-3.32-3.52-4.94-5.37 1.86-1.57 4-4.72 5.51-4.44 10.34 1.88 20.62 4.26 30.71 7.14 1.37.37 2.76 4.7 2.18 6.62-.43 1.37-4.2 2.71-6.27 2.44-3.94-.52-7.76-2.18-12.11-3.5zM1268.87 1087.12c-8.26-1.89-16.34-3.1-23.86-5.82-2.32-.85-3.75-5.73-4.29-9-.15-.85 4.6-3.68 7-3.57 4.92.25 9.82 1.77 14.68 3 8.2 1.94 10.95 6.63 6.47 15.39zM1243.14 1092.09c22.21 1.24 27.9 5.15 26 18.28-5.52-.95-11-1.78-16.51-2.86-11.71-2.3-11.69-2.36-9.49-15.42zM1268.78 1189.24c1.42 11.72.52 12.65-10.61 10.16-5.22-1.18-10.66-1.9-15.46-4-2.23-1-3.18-4.86-4.72-7.42 2.34-1.38 4.89-4.21 7-3.9 7.91 1.14 15.71 3.31 23.79 5.16zM1275.74 1065.6c-12.46-2.83-21.49-4.9-31.12-7.1.09-2.52.22-5.68.43-11.74 9.44 2.16 18.5 3.69 27.08 6.64 1.87.6 2.01 6.38 3.61 12.2zM1195.24 1425.85c-17.31-4.17-28.5-18-42.4-27.55 18.8 1.88 30.66 14.63 42.4 27.55zM1239.34 1225.9c7.62 1.75 15 2.9 21.93 5.36 2 .72 2.62 5.28 3.89 8.08-2.35.79-4.75 2.33-7 2.16-4-.3-7.88-2-11.89-2.47-7.79-.96-10.45-4.67-6.93-13.13zM1246.05 990.57c2.14-7.51 6.83-9.06 13.63-7 6.6 2 13.49 3.1 19.93 5.47 2.07.75 3.07 4.34 4.55 6.63-2.48.64-5.12 2.2-7.41 1.77-10.08-1.93-20.04-4.44-30.7-6.87zM1269.63 943.83c-4.6-.81-9.24-1.44-13.78-2.58-1.76-.43-3.23-2-4.84-3.1 1.46-1.31 3.11-3.93 4.33-3.74 11.34 1.73 22.65 3.84 33.87 6.24 1 .22 1.46 3.4 2.17 5.23-1.8.68-3.75 2.14-5.42 1.89-5.52-.86-10.94-2.37-16.39-3.6zM1239.1 1249c20.17.55 25.43 3.53 23.77 13.1-16.07 1.82-25.27-3.02-23.77-13.1zM1239.17 1204.18c8.77 2.54 17.17 4.74 25.35 7.58 1.49.52 2.08 3.65 3.09 5.59-1.9 1-3.95 2.92-5.66 2.66-5.57-.81-10.94-2.93-16.5-3.66-6.66-.91-8.35-4.29-6.28-12.17zM406.59 1045.47c-5.54-2.57-11.27-4.86-16.44-8-.81-.49 1-7.36 1.34-7.35 5.46.38 11.27.52 16.07 2.72 1.77.79 1.17 6.81 1.64 10.43-.87.73-1.73 1.47-2.61 2.2zM411.79 1006.57c-17.43-4.28-18.64-5.6-16-17l7.82 1.78 9.28 2.13c-.36 4.29-.7 8.28-1.1 13.09zM1111.73 1418c-11.24-8-22.49-16-34.22-24.31 10.06-4.4 14.69 1.93 20.13 7.26 5.14 5 11 9.31 16.58 13.91zM407.06 1052.72c-.75 5.5-1.22 8.87-1.65 12.07-14.85 1.64-18.09-1.37-14.79-14.57zM1249.67 953c11-5 36.16.65 40 9.14zM399.42 950.31c16.42 3.05 20.21 6.42 17.5 15.59-14.42-1.33-19.85-6.18-17.5-15.59zM398.45 1069.33c2.46 6.39 4.85 9.71 4.75 13-.2 6.78-5.45 5.13-9.78 4.53-6-.82-7.41-4.81-5.24-9.4 1.22-2.61 4.88-4.05 10.27-8.13zM387 1094.89c6.58 1.24 14.31-1.56 12.64 8.78-.67 4.26-.3 9.19-7.34 7.79-11.43-2.25-4.9-9.67-5.3-16.57zM1268.43 1181.06c-9.62-4.89-21.2-4.48-29.88-11.1 12.45-3.9 30.83 3.69 29.88 11.1zM1262.47 1282.92c-17-3-20.68-5-22.62-13.4 7.86 1.8 15 3.09 21.76 5.34 1.02.32.58 5.05.86 8.06zM414.58 984.05c-15.1-.81-19.7-4.77-16.76-13.92 15.92 3.03 18.12 4.8 16.76 13.92zM422.3 938.41c-.67 3.76-1.13 6.46-1.91 10.89-6-2.86-11.32-5.15-16.32-7.94-1.2-.67-1.43-3.06-2.12-4.66 1.57-.62 3.26-2 4.68-1.73 4.92.77 9.75 2.08 15.67 3.44zM945.36 1398.32q-20.31-.75-40.64-1.47c0-.66-.09-1.3-.13-1.94 11.76-1 23.52-2.29 35.29-2.81 2.1-.1 4.35 3 6.53 4.54-.34.56-.71 1.11-1.05 1.68zM1238.52 1430.7l-33.6-26.26c6.7-.93 12.16-1.43 15.1 6.5 1.61 4.37 7.31 7.26 11.24 10.74 2.85 2.52 5.84 4.9 8.76 7.32zM1254.79 923.2c13.55-2.14 26.47-.35 38.4 6.09-.18.85-.35 1.7-.52 2.56zM409.53 1024.26c-4.89-1.63-9.92-3-14.56-5.08-1.37-.63-2.53-3.65-2.21-5.26.24-1.14 3.15-2.53 4.8-2.47 10.64.55 14.59 4.49 11.97 12.81zM1243.86 1308.77c14.34-.54 16.11.83 14.34 11.17-12.2.95-14.2-.62-14.34-11.17zM386.24 1120.63c11.41.1 12 1 9 12.54-11.24-.12-12.12-1.28-9-12.54zM1018.56 1402.5c-12.23 2.45-12.23 2.45-19.74-10.3.45-.71.92-1.4 1.39-2.12zM1241.94 1287.87l20.21 8c-11.15 4.73-18.54 1.91-20.21-8zM1161 1422c-10.77.37-12.46-12.42-21.62-14.4.58-.87 1.17-1.76 1.77-2.64q10.8 7.26 21.63 14.47c-.6.85-1.19 1.72-1.78 2.57zM390.17 1155a83.72 83.72 0 01-4.86-9.35c-.11-.27 3.5-2 5.39-3.1 1.58 3.25 3.15 6.49 4.72 9.75zM1025.92 1394.09c5.52 4.66 9.38 7.9 13.22 11.15-.26.72-.49 1.44-.74 2.18l-13.08-1.41c.19-3.71.33-6.76.6-11.92zM1067 1409.76c-14.36 2.87-14.21-10.43-22.13-12.83.52-.68 1-1.39 1.5-2.08 6.28 4.55 12.56 9.09 20.63 14.91zM1249.86 1340.54l-4.54-6.64c1.86-.91 4.19-3 5.58-2.47 2.42.88 4.31 3.32 6.42 5.11zM1253.92 1362.14c-3.53-4.29-6-7.3-9.93-12.06 10.76-.77 15.12.73 9.93 12.06z"/><path class="cls-5" d="M1090.69 949.35c-23 6.17-46.73 10.29-68.71 18.94-40.53 16-80 34.64-120 51.91-2.08.9-5.29-.79-8-1.28 1.07-2.48 1.45-6.33 3.29-7.25q22.35-11.08 45.18-21.15c16.67-7.31 33.38-14.65 50.45-21 31.51-11.64 64.44-17.17 97.79-20.17zM1079 1057.8c-57.31 7.87-113.52 19.69-166.28 44.4-2.75 1.28-7-.69-10.57-1.16 2.06-2.86 3.51-7.24 6.29-8.39 38.3-15.79 77.07-30.08 118.9-33.4 17.31-1.36 34.6-2.88 51.9-4.33-.05.96-.11 1.92-.24 2.88zM1072.43 1199.52c-5.47.26-11 .6-16.43.78-43.36 1.31-86.51 4.08-127.6 19.93-5.26 2-10.31 4.74-15.7 6.18-2.69.74-6-.74-9-1.22 1.58-2.85 2.47-7.34 4.84-8.34 32-13.61 65.25-22.4 100.24-22.47 19.65 0 39.3 1.16 59 1.91 1.63 0 3.22.94 4.84 1.43-.1.6-.14 1.21-.19 1.8zM724.56 1124.86l-56.28-12.85c-31.51-7.15-62.93-14.7-94.59-21.14-10-2-20.66-1-31-1.35-4.55-.18-10.74 1.18-10.14-5.88.16-1.88 6.49-4.53 10-4.62 34.69-.84 67.9 6.4 100.56 17.91 25.11 8.82 50.83 16 76.27 23.88 1.94.61 3.82 1.43 5.73 2.15-.17.62-.37 1.25-.55 1.9zM738.71 1033.94c-3.66 1-6.72 1.8-10 2.66-4.3-2-9.35-5.56-14.89-6.77-39.24-8.47-78.5-16.95-117.94-24.36-17.53-3.3-35.52-4.12-53.29-6.08-1.87-.19-4.12.26-5.55-.62-2.63-1.6-4.81-4-7.18-6.06 2.7-1.45 5.6-4.41 8.08-4.1 19.29 2.45 38.6 5.11 57.74 8.55 21.9 3.9 43.68 8.61 65.46 13.15 3.27.68 6.23 2.69 9.46 3.67 2.89.88 6 .88 8.92 1.79 6.36 2 12.51 4.79 19 6.39 8.67 2.14 17.64 3 26.24 5.28 4.94 1.33 9.44 4.33 13.95 6.5zM654.79 1227.87c-17.13-1.3-34.23-3.27-51.39-3.76-23.2-.64-46.43.11-69.65-.39-4.55-.1-12.92-3.07-12.92-4.74 0-8.7 8-6.49 12.84-6.21q53.48 2.94 106.87 7.1c5.21.4 10.19 3.75 15.29 5.75-.35.73-.69 1.51-1.04 2.25z"/><path d="M845.6 1285.46a2.87 2.87 0 01-1.76 0 5.17 5.17 0 00.23-.7 3 3 0 011.53.7M768.27 1376.13c.46-.46.91-.3 1.52 0-.61.3-1.06.46-1.52 0M764 1376.43c.45.16.45.61.61 1.07a1.09 1.09 0 01-.61-1.07M768.57 1371.11a1.19 1.19 0 011.07-.46c-.31.3-.46.61-1.07.46"/><g id="Shape_19" data-name="Shape 19"><path d="M462.23 778.79c-2.38 2.89-5.63 5-9 6.92a167.68 167.68 0 01-29.85 14.08c-6.17 2.21-12.63 4-19.21 3-5.73-.87-11.29-4-17.1-3.16-2.62.39-5.08 1.6-7.84 2s-5.73-.59-6.81-3c-1.54-3.69 2.76-7.21 4.27-10.89 1-2.4.9-4.9.79-7.4-.61-24-1.21-47.93-2-72-.1-2.5.31-5.72 2.78-6.52 10.82-3.94 21.94-7.33 33.48-7.41s23.39 3.73 31 12.31a12.42 12.42 0 013 5c.91 4.83-3.51 8.92-7.43 11.59a164.94 164.94 0 01-17.48 10.76C433 736 445.89 738.18 455.68 746s14.34 23.17 6.55 32.82m-74.15 9.29c21.79 8.8 48.79 2.78 64.6-14.72a10.22 10.22 0 003-4.58c1.09-3.8-1.44-7.73-4.21-10.67-13.67-14-36.91-17.48-54-8.12-3.67 2-7.53-3.57-5.88-7.26s5.89-5.54 9.57-7.22a123.77 123.77 0 0034.93-22.36 45.9 45.9 0 00-43.61-4.95 13.61 13.61 0 00-5.94 4.15c-2.24 2.87-2.21 6.77-2.06 10.38q1 32.7 3.63 65.35M1038.48 783c2.14-21.51 13-41.3 14.7-62.79.47-5.31 1.43-12.16 6.67-13.22 3.84 5.26 2.34 12.42.66 18.75-4.54 17.44-9.21 35-13.89 52.6-.95 3.66 4.27 5.52 8 5.64a215.73 215.73 0 0048.08-4.28c2.72 1.83 2.08 6.31-.48 8.37s-6 2.34-9.2 2.62l-48.83 2.92c-4.59.19-6.11-6.14-5.74-10.61M1193.13 730.74c-.72-3.86-3.37-7.37-3.82-11.24s3.24-8.9 6.79-7.25c2.27 1.16 2.94 3.91 3.33 6.4a73.5 73.5 0 01-18.28 57.11c-5.86 6.23-13.14 11.68-21.54 13.57s-17.95-.34-23.53-7.06c-4.4-5.37-5.56-13-6-20a153.14 153.14 0 013.27-40.61c.84-3.23 2.61-7.34 6.1-7.08 2.55 4.35 1.53 9.81.63 14.72-1 5.75-1.87 11.62-2.32 17.48-.53 7.12-.63 14.5 1.88 21.2s8.2 12.73 15.19 13.68c9.93 1.24 18.35-6.76 24-14.93a108.43 108.43 0 0012.1-22.77c1.77-4.11 3.1-8.76 2.22-13.17M957.75 771.67c-.61 5.31-.77 11.44 3.14 15a13.13 13.13 0 005.55 2.82 61.92 61.92 0 0039.2-.29c4.11 1.78 3.42 8.34-.08 11s-8.53 2.31-12.85 1.94c-8.1-.63-16.06-1.4-24-2-5.45-.46-11.6-1.17-15-5.48-2.79-3.49-3-8.22-3-12.66.06-14.75 1.78-29.84 7.46-43.44S974 712.7 987.52 706.7c6.14-2.63 13.31-4.05 19.55-1.39s10.45 10.4 7.66 16.5a6.29 6.29 0 01-3.88 3.64c-1.8.36-3.94-.94-4-2.75-.21-4.86-4.82-8.55-9.58-9.18s-9.54 1.24-13.6 3.91c-17.32 11.18-23.32 33.68-25.91 54.24M781.26 762.1c18.82 7.54 37.65 15.22 56.47 22.76-.28 3.22-.7 6.57-2.82 8.89s-6.7 2.79-8.07-.08c-2.28-4.49-7.66-6.62-12.45-8.23-15.54-5.45-31.07-10.91-46.59-16.22a73.25 73.25 0 00.33 17.51c.67 6.09-4.68 10.9-9.53 14.73-2-1-2.11-3.81-1.93-6.18 1.63-20.37 3.27-40.75 5-61.13a46.73 46.73 0 000-8.77c-.57-3.59-2-7.14-1-10.8s5.72-6.09 8.07-3.27a7.37 7.37 0 011.27 3.71 115.21 115.21 0 01-2.64 39.05A559.68 559.68 0 01811 718.28c6.74-5 14.17-10.07 22.65-10.15-.09 7.65-8.53 11.91-15.33 15.4-14.71 7.44-27.17 18.54-39.5 29.36a6.79 6.79 0 00-2.62 3.87c-.16 2.65 2.69 4.33 5.1 5.34M693.87 780.44c-3.58 10.72-13.71 17.83-23.61 23.54-8.29 4.67-17.29 8.81-26.76 8.65-16.84-.25-31.09-14.8-34.84-31-3.62-16.4 1.62-33.73 10.33-48 5.06-8.42 12-16.5 21.43-19.14 7-1.82 14.73-.35 21.53 2.56 3.12 1.4 6.81 3 9.79 1.39 5.17-2.86 11.83 0 15.23 4.78s4.21 10.66 5 16.47c.8 5.53 1.59 11.06 2.24 16.59 1.18 8 2.24 16.46-.35 24.22m-9.79-1.25c2-5 1.21-10.62.29-16-1.48-8.56-3-17.26-4.45-25.95-.36-1.94-1.59-4.67-3.5-3.89-5.48 1.9-10.57-3.16-15.7-6-10-5.56-23.31-1.93-31.29 6.48-7.85 8.26-11 20.08-11.59 31.51-.25 7.24.35 14.73 4 21.11 5.42 9.64 16.91 15 28 14.38s21.43-6.34 29.16-14.32a22.47 22.47 0 005.11-7.31M512.6 802.23c-10.28-6.37-12.54-20.05-13.05-32.13-.68-15.82.54-32.84 10.3-45.36 4.88-6.19 11.5-10.64 18-15 4-2.68 8.39-5.37 13.22-6.27 11.31-2.29 21.94 5.74 30.89 13.28a29.9 29.9 0 015.52 5.61 22.77 22.77 0 013.39 7.78 64.1 64.1 0 01-6.66 49.1c-10.26 17.13-30.06 29-49.76 26.75a26.4 26.4 0 01-11.85-3.81M511.15 778c.85 3.72 1.85 7.57 4.06 10.54 3.68 4.71 10 6.66 16.15 6.82 14.9.34 29.23-9.32 36.17-22.55s7.09-29.37 2-43.48c-1-2.74-2.33-5.6-4.88-6.88-.26 3.9-1 8.53-4.43 10.48s-9-2.54-6.49-5.56c3.58-4.05.09-11-5-12.59s-10.7.32-15.46 2.75c-5.17 2.72-10.17 6-14 10.33-11.82 13-11.81 32.91-8.15 50.14M1282.72 741.1a50 50 0 0132.35 18.09c2.93 3.63 5.48 8 5.27 12.71-.33 8.49-8.85 14.14-16.79 17.26-15.58 6.37-33.68 9.09-49.13 2.38-5.39-2.41-11.8-5.89-17-3 3.6-23.24 7.34-46.35 10.94-69.59a10 10 0 00-9.81 4.87c-1.8-3-.72-7.2 1.53-9.8s5.94-4.15 9.23-5.26a66.12 66.12 0 0131.2-2.17c6 1 12.52 3.36 15.4 8.94 2.29 4.63 1.29 10.51-1.58 15.09-2.87 4.43-7.18 7.67-11.65 10.51m29.42 31c-.09-2.22-1.43-4.11-2.75-5.86-11-14-30.91-20.38-48.08-15.2-1.23-2.73.44-6 2.87-7.77s5.45-2.6 8.33-3.55a34.55 34.55 0 0012.43-8.6c2.78-3.18 5.08-8 2.84-11.67-1.8-3-5.59-3.93-9-4.34a79.33 79.33 0 00-19 .25 5 5 0 00-2.75.82 6.18 6.18 0 00-1.38 3.53c-2.56 18-5.27 36.11-7.84 54.16-.44 2.66-.58 5.87 1.44 7.59a10.79 10.79 0 018.28-8c-.68 3.64-1.36 7.15-2 10.65 14.39 7.87 32.31 4.19 47.47-2.3 4.37-1.86 9.39-4.85 9.18-9.71"/></g><path d="M285 734.71l-17.59 5.13a56.15 56.15 0 00-12.21 4.4 33.58 33.58 0 00-11 8.91c-2.93-1.22-3.55-5.62-1.84-8.3s4.89-4.28 7.82-5.5A426.53 426.53 0 01296 722.74c1.22 2.81-.24 6.23-2.56 8.18s-5.38 2.93-8.43 3.79M252 657.4c2.57-.49 4.77 1.59 6.48 3.42 10 11 20 21.86 30.16 32.73 2 2.2 4 5.74 1.83 7.82s-5.49 0-7.69-2.08c-9.77-9.4-19.54-18.93-29.31-28.33-2.08-2-4.15-4.16-4.89-6.84s.61-6.23 3.42-6.72M297.6 793.7a73.67 73.67 0 00-32.86 36.52c-.73 2.07-1.46 4.15-2.93 5.61s-4 2.32-5.86 1.23a75.58 75.58 0 0148.12-53.5c1.34 2 .61 4.64-.85 6.35s-3.55 2.69-5.62 3.79M1366.1 751.39c-2.16.54-4.2-2-3.79-4.34s2.44-3.79 4.47-4.74a37.73 37.73 0 017.72-1.76c18-2.3 38.06-2.57 52.15 8.67-5.83 3.38-13.14 1.62-19.78.4a94.17 94.17 0 00-40.77 1.77M1415.41 684.2a255.67 255.67 0 00-40.91 25.6c-2.17 1.76-4.74 3.66-7.58 3.25s-4.74-4.47-2.44-6a427.9 427.9 0 0157.83-34.4c1.63 2 1 5.15-.54 7.18s-4.06 3.11-6.36 4.33M1423.53 828.86c-3.79 2.44-8.8.27-12.59-2a306 306 0 01-41.59-29.12c-3.38-2.71-6.77-7.86-3.65-11 3-2.71 7.72.27 10.56 3.25a172.57 172.57 0 0026.55 21c7.86 5 16.39 9.75 20.72 17.88"/></g></g></svg>