<svg xmlns="http://www.w3.org/2000/svg" viewBox="0 0 500 500"><defs><style>.a{fill:#fff;}.b{fill:#bcbcbc;}</style></defs><title>nerdette-stacked</title><path class="a" d="M208.33,308.58c-2.44,2.16-5.22,4.46-7.84,6.94-11.47,10.82-23.9,20.13-39.32,24.59-7.74,2.24-15.68,3.18-23.49.54-10.77-3.65-15.81-11.94-17.28-22.77-3-21.78,8.84-43.41,28.34-51.92a39.74,39.74,0,0,1,21.44-2.87c12.76,1.7,18.86,13.55,13.09,25.13-2.81,5.64-7.41,9.56-12.56,12.91a61.62,61.62,0,0,1-29.52,9.68c-6.08.45-6.39.88-5.14,6.82,2.08,9.94,8.64,14.51,19.29,13.51,9.22-.86,17.23-4.75,24.75-9.83,12.15-8.2,22.15-18.62,30.88-30.32a5.52,5.52,0,0,0,1-1.68c2.11-7.74,4.18-15.49,6.35-23.59-5.55,0-10.86.07-16.16-.05a15.8,15.8,0,0,1-3.84-1.08c.5-1.52.66-3.29,1.55-4.51,2.07-2.83,5.36-3.23,8.58-3.31,4.11-.1,8.22,0,12.14,0,2-5,3.63-9.92,5.79-14.63,2.66-5.81,7.61-8.52,13.87-9,3.73-.27,5,1.86,3.42,5.33-2.32,5-4.53,10-6.76,15.08-.36.83-.57,1.73-1,2.91,1.16.07,2,.18,2.92.18,9.92,0,19.83-.09,29.75.08,2.39,0,3.1-.88,3.8-2.94a91.87,91.87,0,0,1,5.05-12.71c2.64-5.15,7.25-7.68,13.06-7.71,3.74,0,4.93,2.52,3.27,5.89-2.44,4.93-4.57,10-6.78,15.06a8.52,8.52,0,0,0-.26,2.35h3.31c7.29,0,14.59,0,21.89,0a16.35,16.35,0,0,1,3.87.49c2.76.68,4.23,2.47,4,4.62s-2.52,3.91-5.08,4c-2.24.05-4.49,0-6.73,0-7.58,0-15.15,0-22.73.06a3.09,3.09,0,0,0-2.42,1.38c-4.34,14.52-8.54,29.09-9.12,44.36a32.87,32.87,0,0,0,1,9.42c1.58,6.1,6.41,9,12.61,7.91,6.66-1.15,11.83-4.95,16.35-9.69.66-.69.72-2.22.61-3.32-2.09-20.83,10-41.95,28.67-49.95a40.22,40.22,0,0,1,21.16-2.88c12.81,1.6,19.29,13.44,13.27,24.87a35.73,35.73,0,0,1-9,10.53c-8.9,7.31-19.47,10.91-30.86,12.18-.75.08-1.49.16-2.23.29-6.22,1.08-6.29,1.19-5,7.31,1.82,8.41,7.18,12.81,15.86,13,8.1.15,15.42-2.52,22.37-6.41,9.72-5.45,18-12.7,25.69-20.68a16.76,16.76,0,0,1,3.86-2.63,3.4,3.4,0,0,1,4.88,1.27,4.92,4.92,0,0,1-.72,4.45,205.43,205.43,0,0,1-15.16,14.94c-9.37,8-19.71,14.55-31.74,18a44.92,44.92,0,0,1-19.69,1.52,24.07,24.07,0,0,1-17.54-12.25c-.42-.72-.8-1.46-1-1.88-4.8,3.4-9.36,7.1-14.37,10a39.52,39.52,0,0,1-11.21,4.17c-7.41,1.64-13.51-.89-17.7-7.27-1.56-2.39-2.48-5.2-3.75-7.79a4.26,4.26,0,0,0-1.4-1.83c-.26-.15-1.22.61-1.66,1.13a49.36,49.36,0,0,1-17.88,13.25,33.69,33.69,0,0,1-9.91,2.79c-8,.89-14-2.92-17.86-10.82-3.27-6.7-3.57-13.85-3.09-21.11C208.37,309.33,208.33,308.63,208.33,308.58Zm60.29-42.81c-11.62,0-23,0-34.4.09-.71,0-1.84,1.15-2,1.94-2.8,11.41-5.91,22.77-8,34.31a57.21,57.21,0,0,0-.06,18.05c1,7,6.57,10,13.53,8.57s12.12-5.58,16.7-10.67a18.5,18.5,0,0,0,4.66-10c.63-4.43,1.24-8.89,2.27-13.24C263.57,285.22,266.1,275.67,268.62,265.77Zm51.74,37.45a15.66,15.66,0,0,0,3.4.45c11.36-1.36,21.35-5.49,28.54-14.82a16.26,16.26,0,0,0,3.28-12.43c-.6-4.45-3.09-6.59-7.55-6.68a17.82,17.82,0,0,0-11.7,4.06C327,281.23,322.39,291.29,320.36,303.22ZM162.27,269.74c-3.79.09-8,2-11.56,5.19-7.34,6.47-11.53,14.75-13.78,24.14-.62,2.62.89,3.62,2.93,4.16a7.34,7.34,0,0,0,3.06,0c8.54-1.57,16.2-5,22.47-11.13a19.34,19.34,0,0,0,6.14-12.82C172,273.17,169.06,269.73,162.27,269.74Z"/><path class="a" d="M65.33,80c10.33,0,20.42,0,30.52.07a3.23,3.23,0,0,1,2.24,1.57c14.8,26.89,31.31,52.9,42.83,81.52a2.16,2.16,0,0,0,.32.62c-.46-27.47-.92-55.41-1.38-83.57h25.4v121c-1.19,0-2.36,0-3.53,0-7.67,0-15.34.05-23-.06a3.81,3.81,0,0,1-2.88-1.37q-20.1-36.89-40-73.88c-2.31-4.32-4.09-8.92-6.18-13.53.29,29.63.57,59.06.86,88.67H65.33Z"/><path class="a" d="M353.68,199.64V80.19c5-.55,9.86-1.23,14.77-1.61,14.92-1.16,29.87-1.8,44.7.85,17.21,3.06,31.67,10.59,40.56,26.42,6.7,11.94,7.83,25,6.77,38.32a65.37,65.37,0,0,1-9.21,29.38C443,187,430.41,194,415.63,197.77c-15.31,3.91-30.89,3.89-46.51,3C364,200.55,358.9,200.05,353.68,199.64ZM381,179.31c6,0,11.93.57,17.69-.12,15.5-1.85,26.31-9.95,30.88-25.28a55,55,0,0,0,.74-29.33c-3.09-12.44-10.92-20.54-23.36-24-7.59-2.13-15.29-2-23.06-1.23-2.44.24-3,1.2-2.94,3.51.08,24.57,0,49.15,0,73.73Z"/><path class="a" d="M336.78,163.83c-2.41-8.41-6.53-15.72-15.41-19.73,1.6-.77,2.69-1.26,3.76-1.81,24.41-12.5,21.72-44.57,4.6-55.43a47.08,47.08,0,0,0-23.82-7.35c-11.65-.42-23.34-.2-35,.06-5,.12-10,1-14.87,1.58V201h27v-47.4c3.79,0,7.25-.15,10.69,0,7.29.39,12.25,4.11,14.76,11,1,2.62,1.67,5.34,2.42,8,2.45,8.71,4.83,17.44,7.37,26.13.28.93,1.43,2.28,2.19,2.3,8.87.16,17.74.1,26.52.1C343.56,188.64,340.33,176.19,336.78,163.83ZM306.36,131a19.82,19.82,0,0,1-6.62,2.13c-5.46.51-10.95.59-16.64.86V100.14c8.11-.76,16.19-2,23.92,1.6,6,2.8,8.42,8,8.43,14.35C315.45,122.87,312.48,128,306.36,131Z"/><path class="a" d="M244.77,150H200.5v28.6H250V201H173.05V80.18h74.33v22.07H200.52v25.38h44.25Z"/><path class="a" d="M102.81,381.64h6.89l5.67,31.06h.14l4.66-31.06H128l-8.58,48.74h-7l-6.07-32.2h-.14l-5.67,32.2h-7l-9.25-48.74h7.83l5.13,31.06h.14Z"/><path class="a" d="M130.63,381.64h12.42q6.75,0,9.86,3.31t3.1,9.58a15.3,15.3,0,0,1-.33,3.14,11.66,11.66,0,0,1-1.05,2.94,9.54,9.54,0,0,1-1.82,2.43,8.16,8.16,0,0,1-2.6,1.69,11,11,0,0,1,5,4.12,13.51,13.51,0,0,1,1.76,7.42,21.12,21.12,0,0,1-.71,5.61,11.94,11.94,0,0,1-2.26,4.45,10.63,10.63,0,0,1-4.05,3,15.31,15.31,0,0,1-6.08,1.08H130.63Zm8.37,20h3a5.5,5.5,0,0,0,4-1.58,6.2,6.2,0,0,0,1.62-4.63q0-6.89-5.47-6.88H139Zm0,21.88h3.51q3.38,0,4.73-1.89a9.63,9.63,0,0,0,1.35-5.61q0-3.78-1.55-5.63t-5.34-1.86H139Z"/><path class="a" d="M160.34,430.38V381.64h22.41v7.29h-14v12.56h10.8v7.29h-10.8v14.31h15v7.29Z"/><path class="a" d="M188.42,388.93v-7.29h22.15v8l-15.4,33.48h15.4v7.29h-24v-8l15.6-33.49Z"/><path class="b" d="M234.3,397.93v-3.88c0-2.13-.42-3.67-1.25-4.62a3.81,3.81,0,0,0-2.92-1.42c-1.75,0-3,.45-3.6,1.35a7.27,7.27,0,0,0-1,4.2V419a7.21,7.21,0,0,0,1,4.19c.64.91,1.85,1.36,3.6,1.36a3.66,3.66,0,0,0,3.26-1.32,6.54,6.54,0,0,0,.91-3.75v-6h8.6v5.75a15.55,15.55,0,0,1-.8,5,11.52,11.52,0,0,1-2.36,4.09,10.79,10.79,0,0,1-4,2.74,14.6,14.6,0,0,1-5.62,1,15.48,15.48,0,0,1-5.86-1,11.36,11.36,0,0,1-4.09-2.74,11,11,0,0,1-2.43-4.09,15.55,15.55,0,0,1-.8-5V393.35a15.53,15.53,0,0,1,.8-5,11,11,0,0,1,2.43-4.09,11.51,11.51,0,0,1,4.09-2.75,15.49,15.49,0,0,1,5.86-1,13.39,13.39,0,0,1,5.62,1.11,11.08,11.08,0,0,1,4,3A12.89,12.89,0,0,1,242.1,389a17.35,17.35,0,0,1,.8,5.28v3.67Z"/><path class="b" d="M248.87,431.31v-50.1h8.6v20.4h9.16v-20.4h8.6v50.1h-8.6V409.1h-9.16v22.21Z"/><path class="b" d="M282,431.31v-50.1h8.61v50.1Z"/><path class="b" d="M314.64,397.93v-3.88c0-2.13-.42-3.67-1.25-4.62a3.79,3.79,0,0,0-2.91-1.42c-1.76,0-3,.45-3.61,1.35a7.28,7.28,0,0,0-1,4.2V419a7.22,7.22,0,0,0,1,4.19c.65.91,1.85,1.36,3.61,1.36a3.67,3.67,0,0,0,3.26-1.32,6.62,6.62,0,0,0,.9-3.75v-6h8.6v5.75a15.54,15.54,0,0,1-.79,5,11.68,11.68,0,0,1-2.36,4.09,10.79,10.79,0,0,1-4,2.74,14.6,14.6,0,0,1-5.62,1,15.44,15.44,0,0,1-5.86-1,11.41,11.41,0,0,1-4.1-2.74,11,11,0,0,1-2.43-4.09,15.54,15.54,0,0,1-.79-5V393.35a15.52,15.52,0,0,1,.79-5,11,11,0,0,1,2.43-4.09,11.56,11.56,0,0,1,4.1-2.75,15.45,15.45,0,0,1,5.86-1,13.39,13.39,0,0,1,5.62,1.11,11.08,11.08,0,0,1,4,3,13.07,13.07,0,0,1,2.36,4.37,17.35,17.35,0,0,1,.79,5.28v3.67Z"/><path class="b" d="M334.21,431.31h-8.33l9.23-50.1h10.68l9.23,50.1h-8.33l-1.52-11.1h-9.44Zm2.77-18.6h6.94l-3.4-21.51h-.14Z"/><path class="b" d="M369.1,405.91h14.09v25.4H379l-1.6-3.75a15.22,15.22,0,0,1-3.78,3.36,9.63,9.63,0,0,1-4.89,1.08,10.88,10.88,0,0,1-8.33-3.4q-3.19-3.41-3.19-9.44V393.35a15.53,15.53,0,0,1,.8-5,11.52,11.52,0,0,1,2.36-4.09,11,11,0,0,1,3.92-2.75,14.07,14.07,0,0,1,5.55-1,13.42,13.42,0,0,1,5.62,1.11,11.8,11.8,0,0,1,4.06,3A12.36,12.36,0,0,1,382,389a17.05,17.05,0,0,1,.8,5.28v3.19h-8.18a32.6,32.6,0,0,0-.28-4.62,8.62,8.62,0,0,0-.9-2.91,3.45,3.45,0,0,0-1.57-1.49,5.27,5.27,0,0,0-2.18-.42,3.61,3.61,0,0,0-2.71,1.15c-.74.76-1.11,2.21-1.11,4.33v25.74a7,7,0,0,0,.91,3.85,3.4,3.4,0,0,0,3.12,1.43,4,4,0,0,0,3.67-1.6q1.05-1.59,1-5.34v-4.86H369.1Z"/><path class="b" d="M389.16,393.35a15.52,15.52,0,0,1,.79-5,11,11,0,0,1,2.43-4.09,11.56,11.56,0,0,1,4.1-2.75,17.67,17.67,0,0,1,11.72,0,11.65,11.65,0,0,1,4.1,2.75,11.08,11.08,0,0,1,2.42,4.09,15.53,15.53,0,0,1,.8,5v25.81a15.55,15.55,0,0,1-.8,5,11.08,11.08,0,0,1-2.42,4.09,11.49,11.49,0,0,1-4.1,2.74,17.5,17.5,0,0,1-11.72,0,11.41,11.41,0,0,1-4.1-2.74,11,11,0,0,1-2.43-4.09,15.54,15.54,0,0,1-.79-5Zm8.6,25.61a7.22,7.22,0,0,0,1,4.19c.65.91,1.85,1.36,3.61,1.36s3-.45,3.61-1.36a7.3,7.3,0,0,0,1-4.19v-25.4a7.36,7.36,0,0,0-1-4.2c-.65-.9-1.85-1.35-3.61-1.35s-3,.45-3.61,1.35a7.28,7.28,0,0,0-1,4.2Z"/></svg>