<?xml version="1.0" encoding="utf-8"?>
<!-- Generator: Adobe Illustrator 19.2.1, SVG Export Plug-In . SVG Version: 6.00 Build 0)  -->
<svg version="1.1" id="Layer_1" xmlns="http://www.w3.org/2000/svg" xmlns:xlink="http://www.w3.org/1999/xlink" x="0px" y="0px"
	 viewBox="0 0 640 320" style="enable-background:new 0 0 640 320;" xml:space="preserve">
<style type="text/css">
	.st0{fill:#0A0A0A;}
	.st1{fill:#6B6C6C;}
	.st2{fill:#080808;}
</style>
<g>
	<g>
		<g>
			<g>
				<path class="st0" d="M256.3,187.3c-5.6,0-12.4-2.3-16.7-5.1l3.2-10.4c4,2.9,9.2,4.8,13.9,4.8c4.1,0,5.6-1.9,5.6-4.3
					c0-2.6-1.3-4.3-8.9-7.4c-8.7-3.5-11.8-8.6-11.8-14.6c0-7.2,5.9-14.3,17.5-14.3c5.4,0,11,1.9,13.9,3.9l-2.9,10.3
					c-2.8-2-7.4-4.1-11-4.1c-4.2,0-5.9,2-5.9,4c0,3.3,2.5,4.3,8.7,7c9.3,3.9,12,8.4,12,14.8C274,179.8,268.2,187.3,256.3,187.3z"/>
				<path class="st0" d="M306.1,187.3c-15.4,0-25.2-11-25.2-25.6c0-14.6,10.3-25.7,25.7-25.7c15.3,0,25.2,11,25.2,25.7
					C331.8,176.3,321.4,187.3,306.1,187.3z M306.3,146.4c-7.9,0-13.1,6.4-13.1,15.4c0,8.9,5.3,15.4,13.1,15.4
					c7.8,0,13.1-6.5,13.1-15.4C319.5,152.8,314.2,146.4,306.3,146.4z"/>
				<path class="st0" d="M361.4,187.3c-13.3,0-20.8-7.2-20.8-21v-29.4h11.5v28.6c0,7,3,11.3,9.5,11.3c6.5,0,9.5-4.3,9.5-11.3v-28.6
					h11.5v29.4C382.7,180.2,374.7,187.3,361.4,187.3z"/>
				<path class="st0" d="M435.2,187.5l-29.9-26.9v25.9h-11.5v-50.3l1.6-0.3l29.5,26.7v-25.7h11.5v50.3L435.2,187.5z"/>
				<path class="st0" d="M462.6,186.9c-5.8,0-9.1-0.3-15.2-0.8v-48.7c5.8-0.6,9.7-0.8,14.7-0.8c20.6,0,30.2,10.7,30.2,24.7
					C492.3,175.9,483.2,186.9,462.6,186.9z M463.7,146.9c-2,0-3,0.1-4.7,0.3v29.2c2.1,0.2,3,0.3,5.5,0.3c10.8,0,15.6-6.1,15.6-15.4
					C480,152.3,474.4,146.9,463.7,146.9z"/>
			</g>
			<g>
				<path class="st1" d="M260.5,247.9c-15.4,0-25.2-11-25.2-25.6c0-14.6,10.3-25.6,25.6-25.6c15.3,0,25.2,11,25.2,25.6
					C286.1,236.8,275.8,247.9,260.5,247.9z M260.7,206.9c-7.8,0-13.1,6.4-13.1,15.4c0,8.9,5.3,15.4,13.1,15.4
					c7.9,0,13.1-6.5,13.1-15.4C273.8,213.3,268.5,206.9,260.7,206.9z"/>
				<path class="st1" d="M309.7,232.4c-1.6,0-2.7-0.1-4.3-0.1v14.8h-11.5v-49.2c5.1-0.5,9.7-0.8,13.8-0.8c14.3,0,22.1,7.6,22.1,17.7
					C329.8,225,322.8,232.4,309.7,232.4z M309.7,207.9c-1.5,0-2.5,0.1-4.3,0.3v14.1c1.6,0.1,2.4,0.1,3.5,0.1c6.1,0,9.1-2.6,9.1-7.4
					C318,211,315.4,207.9,309.7,207.9z"/>
				<path class="st1" d="M338.7,247.1v-49.6h11.5v49.6H338.7z"/>
				<path class="st1" d="M402.7,248l-29.9-26.9v25.9h-11.5v-50.3l1.6-0.3l29.5,26.7v-25.7h11.5v50.4L402.7,248z"/>
				<path class="st1" d="M415,247.1v-49.6h11.5v49.6H415z"/>
				<path class="st1" d="M460.5,247.9c-15.4,0-25.2-11-25.2-25.6c0-14.6,10.3-25.6,25.7-25.6c15.3,0,25.2,11,25.2,25.6
					C486.2,236.8,475.8,247.9,460.5,247.9z M460.7,206.9c-7.9,0-13.1,6.4-13.1,15.4c0,8.9,5.3,15.4,13.1,15.4
					c7.9,0,13.1-6.5,13.1-15.4C473.9,213.3,468.6,206.9,460.7,206.9z"/>
				<path class="st1" d="M536.5,248l-29.9-26.9v25.9H495v-50.3l1.6-0.3l29.5,26.7v-25.7h11.5v50.4L536.5,248z"/>
				<path class="st1" d="M562.5,247.9c-5.6,0-12.4-2.2-16.7-5.1l3.2-10.4c4,2.9,9.2,4.8,13.9,4.8c4.1,0,5.6-1.9,5.6-4.3
					c0-2.6-1.3-4.3-8.9-7.4c-8.7-3.5-11.8-8.6-11.8-14.5c0-7.2,5.9-14.3,17.5-14.3c5.4,0,11,1.9,13.9,3.8l-2.9,10.3
					c-2.8-2-7.4-4.1-11-4.1c-4.2,0-5.9,2-5.9,4c0,3.2,2.5,4.3,8.7,6.9c9.3,3.9,12.1,8.4,12.1,14.8
					C580.2,240.4,574.4,247.9,562.5,247.9z"/>
			</g>
		</g>
		<g>
			<path class="st2" d="M139.7,119.4l19.4-7.8c-4.3-2.2-8.8-3.5-13.3-4.2L139.7,119.4z"/>
			<path class="st0" d="M69.5,114.7c-19.5,38.7-4,86,34.7,105.5h0l15.9-31.6l0,0c-21.2-10.7-29.8-36.7-19.1-58s36.7-29.8,58-19.1h0
				l16-31.6l0,0C136.3,60.5,89.1,76,69.5,114.7z"/>
			<path class="st2" d="M104.3,220.2c-4.2-2.1-8.1-4.6-11.8-7.3L84.9,228L104.3,220.2L104.3,220.2z"/>
			<path class="st1" d="M196.4,177.4c7.8-30.6-3.5-63.2-28.9-82.3l-8.3,16.5h0l-19.4,7.8c21.2,10.7,29.8,36.7,19.1,58
				c-8.5,16.9-26.8,25.8-44.6,23.2l-9.9,19.7L84.9,228c33.5,16.9,73.4,7.5,96.2-20.4l32.3-2.7L196.4,177.4z"/>
		</g>
	</g>
</g>
</svg>
