<?xml version="1.0" encoding="utf-8"?>
<!-- Generator: Adobe Illustrator 19.2.1, SVG Export Plug-In . SVG Version: 6.00 Build 0)  -->
<svg version="1.1" id="Layer_1" xmlns="http://www.w3.org/2000/svg" xmlns:xlink="http://www.w3.org/1999/xlink" x="0px" y="0px"
	 viewBox="0 0 1000 1000" style="enable-background:new 0 0 1000 1000;" xml:space="preserve">
<style type="text/css">
	.st0{fill:#090909;}
	.st1{fill:#6B6C6C;}
	.st2{fill:#080808;}
</style>
<g>
	<g>
		<g>
			<path class="st0" d="M277.9,684.9c-11.5,0-25.4-4.6-34.3-10.4l6.5-21.4c8.2,6,18.9,9.9,28.5,9.9c8.3,0,11.5-3.9,11.5-8.9
				c0-5.3-2.6-8.9-18.2-15.2c-17.9-7.2-24.2-17.7-24.2-29.9c0-14.9,12.1-29.3,35.9-29.3c11.1,0,22.5,3.9,28.5,7.9l-6,21.1
				c-5.8-4-15.3-8.3-22.5-8.3c-8.6,0-12.1,4-12.1,8.2c0,6.7,5.1,8.9,17.9,14.3c19,8.1,24.7,17.3,24.7,30.3
				C314.1,669.4,302.3,684.9,277.9,684.9z"/>
			<path class="st0" d="M380.1,684.9c-31.5,0-51.7-22.7-51.7-52.6c0-30,21.1-52.7,52.7-52.7c31.4,0,51.7,22.7,51.7,52.7
				C432.8,662.2,411.6,684.9,380.1,684.9z M380.6,600.7c-16.1,0-27,13.2-27,31.6c0,18.2,10.8,31.6,27,31.6c16.1,0,27-13.4,27-31.6
				C407.5,613.9,396.7,600.7,380.6,600.7z"/>
			<path class="st0" d="M493.7,684.9c-27.4,0-42.7-14.7-42.7-43.1v-60.4h23.6v58.8c0,14.5,6.1,23.2,19.6,23.2
				c13.3,0,19.5-8.8,19.5-23.2v-58.8h23.6v60.4C537.4,670.1,521.1,684.9,493.7,684.9z"/>
			<path class="st0" d="M645.2,685.1L583.8,630v53.2h-23.6V579.9l3.2-0.5l60.6,54.8v-52.8h23.6v103.4L645.2,685.1z"/>
			<path class="st0" d="M701.5,684c-11.9,0-18.6-0.6-31.1-1.6V582.3c11.8-1.2,20-1.6,30.2-1.6c42.3,0,62,21.9,62,50.7
				C762.6,661.3,743.8,684,701.5,684z M703.7,601.7c-4,0-6.1,0.1-9.7,0.5v60.1c4.3,0.4,6.1,0.5,11.2,0.5c22.3,0,32.1-12.5,32.1-31.6
				C737.4,612.8,725.7,601.7,703.7,601.7z"/>
		</g>
		<g>
			<path class="st1" d="M200.6,809.2c-31.5,0-51.7-22.7-51.7-52.5c0-30,21.1-52.7,52.7-52.7c31.4,0,51.7,22.6,51.7,52.7
				C253.3,786.5,232,809.2,200.6,809.2z M201,725.1c-16.1,0-27,13.2-27,31.5c0,18.2,10.9,31.6,27,31.6c16.1,0,27-13.4,27-31.6
				C228,738.3,217.1,725.1,201,725.1z"/>
			<path class="st1" d="M301.6,777.3c-3.3,0-5.6-0.1-8.8-0.3v30.5h-23.6v-101c10.4-1.1,19.9-1.6,28.4-1.6
				c29.5,0,45.3,15.7,45.3,36.3C342.9,762.2,328.6,777.3,301.6,777.3z M301.6,727c-3.1,0-5.1,0.1-8.8,0.5v29.1
				c3.3,0.1,4.9,0.3,7.1,0.3c12.5,0,18.8-5.4,18.8-15.3C318.7,733.4,313.3,727,301.6,727z"/>
			<path class="st1" d="M361.3,807.5V705.6h23.6v101.9H361.3z"/>
			<path class="st1" d="M492.7,809.4l-61.4-55.2v53.2h-23.6V704.3l3.2-0.6l60.6,54.8v-52.9h23.6V809L492.7,809.4z"/>
			<path class="st1" d="M517.9,807.5V705.6h23.6v101.9H517.9z"/>
			<path class="st1" d="M611.4,809.2c-31.6,0-51.7-22.7-51.7-52.5c0-30,21.2-52.7,52.7-52.7c31.4,0,51.7,22.6,51.7,52.7
				C664.1,786.5,642.9,809.2,611.4,809.2z M611.9,725.1c-16.1,0-27,13.2-27,31.5c0,18.2,10.8,31.6,27,31.6c16.1,0,27-13.4,27-31.6
				C638.8,738.3,628,725.1,611.9,725.1z"/>
			<path class="st1" d="M767.4,809.4L706,754.3v53.2h-23.6V704.3l3.2-0.6l60.6,54.8v-52.9h23.6V809L767.4,809.4z"/>
			<path class="st1" d="M820.9,809.2c-11.5,0-25.4-4.6-34.3-10.4l6.5-21.4c8.2,6,18.9,9.9,28.5,9.9c8.3,0,11.5-3.9,11.5-8.9
				c0-5.3-2.6-8.9-18.2-15.2c-17.9-7.2-24.2-17.6-24.2-29.9c0-14.9,12.1-29.3,35.9-29.3c11.1,0,22.5,3.9,28.5,7.9l-6,21.1
				c-5.8-4-15.3-8.3-22.5-8.3c-8.6,0-12.1,4-12.1,8.2c0,6.6,5.1,8.9,17.9,14.3c19.1,8.1,24.8,17.3,24.8,30.3
				C857.2,793.8,845.4,809.2,820.9,809.2z"/>
		</g>
	</g>
	<g>
		<path class="st2" d="M522.1,253.9l39.8-15.9c-8.8-4.5-18.1-7.3-27.4-8.6L522.1,253.9z"/>
		<path class="st0" d="M377.9,244.4c-40.2,79.5-8.2,176.6,71.3,216.7h0l32.8-64.9h0c-43.6-22-61.2-75.4-39.2-119
			c22-43.6,75.4-61.2,119-39.2h0l32.8-64.9h0C515.1,132.9,418.1,164.8,377.9,244.4z"/>
		<path class="st2" d="M449.2,461.1c-8.6-4.4-16.7-9.4-24.1-15l-15.6,31L449.2,461.1L449.2,461.1z"/>
		<path class="st1" d="M638.4,373c16.1-62.8-7.2-129.9-59.4-169l-17.2,34h0l-39.8,15.9c43.6,22,61.2,75.4,39.2,119.1
			c-17.6,34.8-55.1,53-91.6,47.8l-20.4,40.4L409.5,477c68.9,34.8,150.8,15.5,197.7-42l66.3-5.5L638.4,373z"/>
	</g>
</g>
</svg>
